<svg width="66" height="66" viewBox="0 0 66 66" fill="none" xmlns="http://www.w3.org/2000/svg">
<rect width="66" height="66" rx="33" fill="#786960"/>
<rect x="4" y="4" width="58" height="57" rx="28.5" fill="#8A8787"/>
<path d="M48.625 28.7975V19.375C48.625 17.3069 46.9432 15.625 44.8749 15.625H16.7499C14.6818 15.625 13 17.3068 13 19.375V38.125C13 40.1932 14.6818 41.875 16.75 41.875H37.7748C39.0031 46.1969 42.9771 49.375 47.6875 49.375C49.5003 49.375 51.2828 48.898 52.8447 47.9944C53.2924 47.7353 53.4462 47.1622 53.1861 46.7136C52.927 46.265 52.353 46.1102 51.9053 46.3721C50.6291 47.1101 49.1706 47.5 47.6874 47.5C43.0347 47.5 39.2499 43.7152 39.2499 39.0625C39.2499 34.4099 43.0348 30.625 47.6874 30.625C52.3401 30.625 56.1249 34.4099 56.1249 39.0625V40.0001C56.1249 41.0337 55.2836 41.875 54.25 41.875C53.2164 41.875 52.375 41.0337 52.375 40.0001V36.25C52.375 35.7318 51.9557 35.3125 51.4375 35.3125C51.1853 35.3125 50.9587 35.4145 50.7904 35.5762C49.9618 34.8378 48.882 34.375 47.6874 34.375C45.1029 34.375 43 36.4779 43 39.0624C43 41.647 45.1029 43.75 47.6875 43.75C49.0846 43.75 50.3269 43.1233 51.1865 42.1502C51.8656 43.115 52.9829 43.75 54.2501 43.75C56.3182 43.75 58 42.0682 58 40V39.0624C58 33.6926 53.873 29.2734 48.625 28.7975ZM16.75 17.5H44.875C44.9141 17.5 44.9467 17.5199 44.9852 17.5223L31.5834 28.5229C31.1064 28.8233 30.4152 28.761 30.1048 28.5706L16.641 17.5221C16.679 17.5198 16.7114 17.5 16.75 17.5ZM46.75 28.7975C41.502 29.2734 37.375 33.6926 37.375 39.0625C37.375 39.3789 37.3944 39.6908 37.4224 40.0001H16.75C15.7164 40.0001 14.8751 39.1587 14.8751 38.1251V19.375C14.8751 19.1095 14.9337 18.8588 15.0337 18.6297L28.998 30.0812C29.5437 30.4374 30.1708 30.6251 30.8126 30.6251C31.4297 30.6251 32.033 30.4512 32.564 30.1216C32.6171 30.0932 32.6675 30.0594 32.7151 30.02L46.5913 18.6295C46.6914 18.8588 46.7501 19.1095 46.7501 19.3751V28.7975H46.75ZM47.6875 41.875C46.1366 41.875 44.875 40.6134 44.875 39.0625C44.875 37.5116 46.1366 36.25 47.6875 36.25C49.2384 36.25 50.5 37.5116 50.5 39.0625C50.5 40.6134 49.2384 41.875 47.6875 41.875Z" fill="white"/>
</svg>
