<svg width="167" height="23" viewBox="0 0 167 23" fill="none" xmlns="http://www.w3.org/2000/svg">
<path d="M161.675 4.40702C162.567 3.83529 163.737 3.87591 164.615 4.46576C165.423 4.99598 166.018 5.77413 166.305 6.67241C166.413 7.0138 166.406 7.37921 166.286 7.71681C166.165 8.05442 165.938 8.34708 165.634 8.5533C165.331 8.75951 164.968 8.86881 164.597 8.86569C164.225 8.86257 163.864 8.7472 163.565 8.53593L160.631 6.46437C160.631 5.39238 161.11 4.76925 161.675 4.40849V4.40702Z" fill="url(#paint0_linear_1_125)"/>
<path d="M152.705 4.40702C151.813 3.83529 150.643 3.87591 149.766 4.46576C148.958 4.99598 148.363 5.77413 148.077 6.67241C147.968 7.0138 147.975 7.37921 148.095 7.71681C148.216 8.05442 148.443 8.34708 148.747 8.5533C149.05 8.75951 149.413 8.86881 149.785 8.86569C150.156 8.86257 150.517 8.7472 150.817 8.53593L153.75 6.46437C153.75 5.39238 153.271 4.76925 152.706 4.40849L152.705 4.40702Z" fill="url(#paint1_linear_1_125)"/>
<path d="M152.161 6.24308C151.996 6.08492 151.773 5.99609 151.54 5.99609C151.306 5.99609 151.083 6.08492 150.918 6.24308C150.162 6.96363 149.545 7.80804 149.098 8.73658C149.379 8.8474 149.684 8.88706 149.985 8.85174C150.286 8.81642 150.573 8.70732 150.818 8.5349L152.296 7.27053C152.395 7.10928 152.436 6.92071 152.412 6.73464C152.388 6.54856 152.299 6.37559 152.161 6.24308Z" fill="#5C586F"/>
<path d="M164.501 13.7075C164.069 16.7424 162.039 18.3763 157.19 18.3763C151.646 18.3763 149.789 16.2421 149.789 12.3164C149.789 11.1994 150.063 10.0982 150.589 9.102C151.115 8.1058 151.878 7.2426 152.816 6.58231C153.754 5.92202 154.841 5.4832 155.989 5.30139C157.136 5.11958 158.312 5.1999 159.421 5.53584L164.501 13.7075Z" fill="url(#paint2_linear_1_125)"/>
<path d="M164.592 12.3182C164.594 12.7834 164.564 13.2482 164.501 13.7094C163.794 13.8974 163.052 13.926 162.332 13.7931C161.612 13.6602 160.933 13.3693 160.349 12.9431C159.766 12.5168 159.292 11.9669 158.966 11.3361C158.64 10.7052 158.471 10.0106 158.47 9.30636C158.47 7.34837 158.678 6.19512 159.419 5.53723C160.92 5.99275 162.23 6.89569 163.16 8.11502C164.091 9.33435 164.592 10.8066 164.592 12.3182Z" fill="url(#paint3_linear_1_125)"/>
<path d="M152.191 12.2718C152.66 12.2718 153.04 11.9781 153.04 11.6159C153.04 11.2536 152.66 10.96 152.191 10.96C151.721 10.96 151.341 11.2536 151.341 11.6159C151.341 11.9781 151.721 12.2718 152.191 12.2718Z" fill="#FFAECF"/>
<path d="M162.189 12.2718C162.659 12.2718 163.039 11.9781 163.039 11.6159C163.039 11.2536 162.659 10.96 162.189 10.96C161.72 10.96 161.34 11.2536 161.34 11.6159C161.34 11.9781 161.72 12.2718 162.189 12.2718Z" fill="#FFAECF"/>
<path d="M155.311 10.2575C155.46 9.37531 154.836 8.54405 153.918 8.40085C152.999 8.25765 152.134 8.85673 151.985 9.73893C151.835 10.6211 152.459 11.4524 153.378 11.5956C154.296 11.7388 155.162 11.1397 155.311 10.2575Z" fill="white"/>
<path d="M160.733 11.6158C161.663 11.6158 162.418 10.8913 162.418 9.99755C162.418 9.1038 161.663 8.37927 160.733 8.37927C159.802 8.37927 159.048 9.1038 159.048 9.99755C159.048 10.8913 159.802 11.6158 160.733 11.6158Z" fill="white"/>
<path d="M154.66 10.1134C154.749 9.58619 154.376 9.08969 153.827 9.00448C153.278 8.91927 152.761 9.27761 152.672 9.80486C152.583 10.3321 152.956 10.8286 153.505 10.9138C154.054 10.999 154.571 10.6407 154.66 10.1134Z" fill="#383842"/>
<path d="M160.733 10.9618C161.287 10.9618 161.737 10.5301 161.737 9.99751C161.737 9.46494 161.287 9.0332 160.733 9.0332C160.178 9.0332 159.729 9.46494 159.729 9.99751C159.729 10.5301 160.178 10.9618 160.733 10.9618Z" fill="#383842"/>
<path d="M157.749 12.1078C157.548 12.1065 157.352 12.046 157.188 11.9345C157.024 12.046 156.829 12.1065 156.628 12.1078C156.486 12.1048 156.347 12.0738 156.219 12.0166C156.09 11.9594 155.975 11.8772 155.882 11.7754C155.858 11.7514 155.84 11.7232 155.828 11.6925C155.816 11.6618 155.811 11.6291 155.812 11.5963C155.813 11.5635 155.821 11.5313 155.836 11.5015C155.85 11.4717 155.87 11.4448 155.895 11.4225C155.92 11.4001 155.949 11.3828 155.981 11.3713C156.013 11.3599 156.047 11.3546 156.081 11.3558C156.116 11.3569 156.149 11.3646 156.18 11.3782C156.211 11.3918 156.239 11.4112 156.262 11.4352C156.306 11.4892 156.362 11.5329 156.426 11.5629C156.49 11.593 156.56 11.6086 156.631 11.6086C156.703 11.6086 156.773 11.593 156.837 11.5629C156.901 11.5329 156.957 11.4892 157 11.4352C157.025 11.4102 157.054 11.3902 157.087 11.3765C157.12 11.3629 157.155 11.3558 157.191 11.3558C157.226 11.3558 157.261 11.3629 157.294 11.3765C157.327 11.3902 157.356 11.4102 157.381 11.4352C157.424 11.4892 157.48 11.5329 157.544 11.5629C157.608 11.593 157.678 11.6086 157.75 11.6086C157.821 11.6086 157.891 11.593 157.955 11.5629C158.019 11.5329 158.075 11.4892 158.119 11.4352C158.142 11.4112 158.17 11.3918 158.201 11.3782C158.232 11.3646 158.265 11.3569 158.3 11.3558C158.334 11.3546 158.368 11.3599 158.4 11.3713C158.432 11.3828 158.461 11.4001 158.486 11.4225C158.511 11.4448 158.531 11.4717 158.545 11.5015C158.56 11.5313 158.568 11.5635 158.569 11.5963C158.57 11.6291 158.565 11.6618 158.553 11.6925C158.541 11.7232 158.523 11.7514 158.499 11.7754C158.405 11.8777 158.29 11.96 158.161 12.0172C158.032 12.0744 157.892 12.1053 157.75 12.1078H157.749Z" fill="#383842"/>
<path d="M158.113 10.303C158.113 10.5889 157.7 10.8199 157.19 10.8199C156.68 10.8199 156.267 10.5889 156.267 10.303C156.267 10.0172 156.68 9.98389 157.19 9.98389C157.7 9.98389 158.113 10.0177 158.113 10.303Z" fill="#383842"/>
<path d="M11.8335 10.2387C11.2551 10.1546 10.7124 9.91789 10.2657 9.55501C9.81911 9.19213 9.48613 8.7173 9.3039 8.18341C9.12166 7.64951 9.09732 7.07751 9.23359 6.53111C9.36985 5.98471 9.66137 5.48536 10.0757 5.08869C11.3106 3.90264 13.6867 3.54433 14.9216 4.73038C15.0031 4.80861 15.0784 4.89255 15.1469 4.98149L11.8335 10.2387Z" fill="url(#paint4_linear_1_125)"/>
<path d="M14.5486 9.38398C14.198 9.7215 13.7693 9.9748 13.2976 10.1233C12.8258 10.2718 12.3242 10.3113 11.8336 10.2386C11.638 9.68424 11.571 9.09548 11.6372 8.51358C11.7033 7.93168 11.9011 7.3707 12.2167 6.86991C12.5323 6.36912 12.958 5.94063 13.4641 5.61442C13.9702 5.28822 14.5443 5.07218 15.1465 4.98145C16.1057 6.21547 15.7015 8.27723 14.5486 9.38398Z" fill="url(#paint5_linear_1_125)"/>
<path d="M3.84854 10.2387C4.42695 10.1546 4.96971 9.91789 5.41634 9.55501C5.86297 9.19213 6.19594 8.7173 6.37818 8.18341C6.56042 7.64951 6.58476 7.07751 6.44849 6.53111C6.31223 5.98471 6.02071 5.48536 5.6064 5.08869C4.37146 3.90264 1.99537 3.54433 0.760941 4.73038C0.679179 4.80848 0.603701 4.89243 0.535156 4.98149L3.84854 10.2387Z" fill="url(#paint6_linear_1_125)"/>
<path d="M1.13403 9.38398C1.48459 9.72149 1.91312 9.97479 2.3848 10.1233C2.85647 10.2718 3.35797 10.3113 3.84855 10.2386C3.9958 9.82267 4.07071 9.38623 4.07025 8.94686C4.07001 7.98971 3.71365 7.06415 3.06544 6.33713C2.41723 5.6101 1.51985 5.12947 0.535165 4.98193C-0.42098 6.21547 -0.0193582 8.27723 1.13403 9.38398Z" fill="url(#paint7_linear_1_125)"/>
<path d="M2.37432 6.65754C2.27766 6.56513 2.1615 6.49369 2.03367 6.44802C1.90584 6.40236 1.76931 6.38353 1.63326 6.39281C1.49722 6.40208 1.36482 6.43925 1.24499 6.5018C1.12516 6.56436 1.02068 6.65084 0.938577 6.75544C0.661235 7.10545 0.412941 7.47583 0.195984 7.86317C0.378604 8.43426 0.69985 8.95552 1.13327 9.38404C1.38193 9.62333 1.67047 9.82103 1.98697 9.96899L2.62253 7.5264C2.66269 7.37331 2.66093 7.21285 2.61744 7.06061C2.57395 6.90837 2.4902 6.76952 2.37432 6.65754Z" fill="#FD748D"/>
<path d="M0.795615 12.651C0.756299 12.3647 0.736719 12.0763 0.737003 11.7875C0.752873 9.988 1.50833 8.26737 2.83888 7.00027C4.16942 5.73317 5.96731 5.02222 7.84107 5.02222C9.71483 5.02222 11.5127 5.73317 12.8433 7.00027C14.1738 8.26737 14.9293 9.988 14.9451 11.7875C14.9457 12.0764 14.9261 12.3651 14.8865 12.6515L0.795615 12.651Z" fill="url(#paint8_linear_1_125)"/>
<path d="M14.887 12.6514C14.4365 15.8708 11.4534 17.1229 7.8413 17.1229C4.22926 17.1229 1.24563 15.8708 0.795593 12.6509C2.63041 10.966 4.46523 11.5598 6.40199 8.0447C6.54023 7.79364 6.74778 7.58398 7.00187 7.4387C7.19178 7.32966 7.40275 7.25875 7.62201 7.23026C7.84127 7.20176 8.06427 7.21628 8.27752 7.27292C8.49077 7.32957 8.68985 7.42717 8.8627 7.55983C9.03555 7.69248 9.17859 7.85743 9.28317 8.0447C11.2164 11.5598 13.0547 10.966 14.8896 12.6514H14.887Z" fill="url(#paint9_linear_1_125)"/>
<path d="M3.28227 11.8981C3.71013 11.8981 4.05697 11.6303 4.05697 11.2999C4.05697 10.9696 3.71013 10.7018 3.28227 10.7018C2.85441 10.7018 2.50757 10.9696 2.50757 11.2999C2.50757 11.6303 2.85441 11.8981 3.28227 11.8981Z" fill="#FFAECF"/>
<path d="M12.3998 11.8981C12.8277 11.8981 13.1745 11.6303 13.1745 11.2999C13.1745 10.9696 12.8277 10.7018 12.3998 10.7018C11.972 10.7018 11.6251 10.9696 11.6251 11.2999C11.6251 11.6303 11.972 11.8981 12.3998 11.8981Z" fill="#FFAECF"/>
<path d="M4.61049 11.2999C5.45889 11.2999 6.14665 10.6394 6.14665 9.82459C6.14665 9.00978 5.45889 8.34924 4.61049 8.34924C3.7621 8.34924 3.07434 9.00978 3.07434 9.82459C3.07434 10.6394 3.7621 11.2999 4.61049 11.2999Z" fill="white"/>
<path d="M11.0716 11.2999C11.92 11.2999 12.6078 10.6394 12.6078 9.82459C12.6078 9.00978 11.92 8.34924 11.0716 8.34924C10.2232 8.34924 9.53546 9.00978 9.53546 9.82459C9.53546 10.6394 10.2232 11.2999 11.0716 11.2999Z" fill="white"/>
<path d="M4.61052 10.7042C5.11635 10.7042 5.5264 10.3104 5.5264 9.82457C5.5264 9.33877 5.11635 8.94495 4.61052 8.94495C4.1047 8.94495 3.69464 9.33877 3.69464 9.82457C3.69464 10.3104 4.1047 10.7042 4.61052 10.7042Z" fill="#383842"/>
<path d="M11.0716 10.7042C11.5774 10.7042 11.9875 10.3104 11.9875 9.82457C11.9875 9.33877 11.5774 8.94495 11.0716 8.94495C10.5658 8.94495 10.1557 9.33877 10.1557 9.82457C10.1557 10.3104 10.5658 10.7042 11.0716 10.7042Z" fill="#383842"/>
<path d="M8.35096 11.7703C8.169 11.7689 7.99159 11.7156 7.84128 11.6171C7.69111 11.7159 7.51361 11.7692 7.33161 11.7703C7.19892 11.768 7.06816 11.7393 6.94762 11.686C6.82708 11.6326 6.71938 11.5559 6.63132 11.4605C6.58665 11.4117 6.56355 11.3481 6.56691 11.2832C6.57027 11.2183 6.59984 11.1573 6.64934 11.113C6.69883 11.0687 6.76435 11.0447 6.83198 11.046C6.89961 11.0474 6.96402 11.074 7.01154 11.1203C7.0493 11.1672 7.09777 11.2052 7.15321 11.2314C7.20865 11.2575 7.26959 11.2711 7.33136 11.2711C7.39312 11.2711 7.45406 11.2575 7.50951 11.2314C7.56495 11.2052 7.61341 11.1672 7.65118 11.1203C7.6755 11.0952 7.70493 11.0753 7.73763 11.0616C7.77034 11.0479 7.80562 11.0409 7.84128 11.0409C7.87695 11.0409 7.91223 11.0479 7.94493 11.0616C7.97764 11.0753 8.00707 11.0952 8.03139 11.1203C8.06916 11.1672 8.11762 11.2052 8.17306 11.2314C8.2285 11.2575 8.28944 11.2711 8.35121 11.2711C8.41297 11.2711 8.47392 11.2575 8.52936 11.2314C8.5848 11.2052 8.63326 11.1672 8.67103 11.1203C8.71854 11.074 8.78295 11.0474 8.85058 11.046C8.91821 11.0447 8.98373 11.0687 9.03323 11.113C9.08272 11.1573 9.11229 11.2183 9.11566 11.2832C9.11902 11.3481 9.09591 11.4117 9.05124 11.4605C8.96328 11.5558 8.85567 11.6326 8.73521 11.686C8.61476 11.7393 8.48408 11.768 8.35146 11.7703H8.35096Z" fill="#383842"/>
<path d="M27.8242 12.1895H22.1992V18H19.2695V3.78125H28.5273V6.1543H22.1992V9.82617H27.8242V12.1895ZM35.7246 10.0801C35.3405 10.028 35.002 10.002 34.709 10.002C33.6413 10.002 32.9414 10.3633 32.6094 11.0859V18H29.7871V7.43359H32.4531L32.5312 8.69336C33.0977 7.72331 33.8822 7.23828 34.8848 7.23828C35.1973 7.23828 35.4902 7.2806 35.7637 7.36523L35.7246 10.0801ZM36.3008 12.6191C36.3008 11.571 36.5026 10.6367 36.9062 9.81641C37.3099 8.99609 37.8893 8.36133 38.6445 7.91211C39.4062 7.46289 40.2884 7.23828 41.291 7.23828C42.7168 7.23828 43.8789 7.67448 44.7773 8.54688C45.6823 9.41927 46.1868 10.6042 46.291 12.1016L46.3105 12.8242C46.3105 14.4453 45.8581 15.7474 44.9531 16.7305C44.0482 17.707 42.834 18.1953 41.3105 18.1953C39.7871 18.1953 38.5697 17.707 37.6582 16.7305C36.7533 15.7539 36.3008 14.4258 36.3008 12.7461V12.6191ZM39.123 12.8242C39.123 13.8268 39.3118 14.5951 39.6895 15.1289C40.0671 15.6562 40.6074 15.9199 41.3105 15.9199C41.9941 15.9199 42.528 15.6595 42.9121 15.1387C43.2962 14.6113 43.4883 13.7715 43.4883 12.6191C43.4883 11.6361 43.2962 10.8743 42.9121 10.334C42.528 9.79362 41.9876 9.52344 41.291 9.52344C40.6009 9.52344 40.0671 9.79362 39.6895 10.334C39.3118 10.8678 39.123 11.6979 39.123 12.8242ZM50.6465 7.43359L50.7344 8.6543C51.4896 7.71029 52.502 7.23828 53.7715 7.23828C54.8913 7.23828 55.7246 7.56706 56.2715 8.22461C56.8184 8.88216 57.0983 9.86523 57.1113 11.1738V18H54.2891V11.2422C54.2891 10.6432 54.1589 10.2103 53.8984 9.94336C53.638 9.66992 53.2051 9.5332 52.5996 9.5332C51.8053 9.5332 51.2096 9.87174 50.8125 10.5488V18H47.9902V7.43359H50.6465ZM62.6387 4.83594V7.43359H64.4453V9.50391H62.6387V14.7773C62.6387 15.168 62.7135 15.4479 62.8633 15.6172C63.013 15.7865 63.2995 15.8711 63.7227 15.8711C64.0352 15.8711 64.3118 15.8483 64.5527 15.8027V17.9414C63.9993 18.1107 63.4297 18.1953 62.8438 18.1953C60.8646 18.1953 59.8555 17.196 59.8164 15.1973V9.50391H58.2734V7.43359H59.8164V4.83594H62.6387Z" fill="#3C2313"/>
<path d="M79.4316 13.2637C79.321 14.7936 78.7546 15.998 77.7324 16.877C76.7168 17.7559 75.3757 18.1953 73.709 18.1953C71.8861 18.1953 70.4505 17.5833 69.4023 16.3594C68.3607 15.1289 67.8398 13.4427 67.8398 11.3008V10.4316C67.8398 9.06445 68.0807 7.86003 68.5625 6.81836C69.0443 5.77669 69.7311 4.97917 70.623 4.42578C71.5215 3.86589 72.5632 3.58594 73.748 3.58594C75.3887 3.58594 76.7103 4.02539 77.7129 4.9043C78.7155 5.7832 79.2949 7.01693 79.4512 8.60547H76.5215C76.4499 7.6875 76.1927 7.02344 75.75 6.61328C75.3138 6.19661 74.6465 5.98828 73.748 5.98828C72.7715 5.98828 72.0391 6.33984 71.5508 7.04297C71.069 7.73958 70.8216 8.82357 70.8086 10.2949V11.3691C70.8086 12.9056 71.0397 14.0286 71.502 14.7383C71.9707 15.4479 72.7064 15.8027 73.709 15.8027C74.6139 15.8027 75.2878 15.5977 75.7305 15.1875C76.1797 14.7708 76.4368 14.1296 76.502 13.2637H79.4316ZM87.293 18C87.1628 17.7461 87.0684 17.4303 87.0098 17.0527C86.3262 17.8145 85.4375 18.1953 84.3438 18.1953C83.3086 18.1953 82.4492 17.8958 81.7656 17.2969C81.0885 16.6979 80.75 15.9427 80.75 15.0312C80.75 13.9115 81.1634 13.0521 81.9902 12.4531C82.8236 11.8542 84.0247 11.5514 85.5938 11.5449H86.8926V10.9395C86.8926 10.4512 86.7656 10.0605 86.5117 9.76758C86.2643 9.47461 85.8704 9.32812 85.3301 9.32812C84.8548 9.32812 84.4805 9.44206 84.207 9.66992C83.9401 9.89779 83.8066 10.2103 83.8066 10.6074H80.9844C80.9844 9.99544 81.1732 9.42904 81.5508 8.9082C81.9284 8.38737 82.4622 7.98047 83.1523 7.6875C83.8424 7.38802 84.6172 7.23828 85.4766 7.23828C86.7786 7.23828 87.8105 7.56706 88.5723 8.22461C89.3405 8.87565 89.7246 9.79362 89.7246 10.9785V15.5586C89.7311 16.5612 89.8711 17.3197 90.1445 17.834V18H87.293ZM84.959 16.0371C85.3757 16.0371 85.7598 15.946 86.1113 15.7637C86.4629 15.5749 86.7233 15.3242 86.8926 15.0117V13.1953H85.8379C84.4251 13.1953 83.6732 13.6836 83.582 14.6602L83.5723 14.8262C83.5723 15.1777 83.696 15.4674 83.9434 15.6953C84.1908 15.9232 84.5293 16.0371 84.959 16.0371ZM95.2715 4.83594V7.43359H97.0781V9.50391H95.2715V14.7773C95.2715 15.168 95.3464 15.4479 95.4961 15.6172C95.6458 15.7865 95.9323 15.8711 96.3555 15.8711C96.668 15.8711 96.9447 15.8483 97.1855 15.8027V17.9414C96.6322 18.1107 96.0625 18.1953 95.4766 18.1953C93.4974 18.1953 92.4883 17.196 92.4492 15.1973V9.50391H90.9062V7.43359H92.4492V4.83594H95.2715ZM98.2598 14.1719C98.2598 13.5143 98.4421 12.9056 98.8066 12.3457C99.1777 11.7858 99.8548 11.1641 100.838 10.4805C100.415 9.91406 100.083 9.38346 99.8418 8.88867C99.6009 8.38737 99.4805 7.86654 99.4805 7.32617C99.4805 6.2194 99.8288 5.32096 100.525 4.63086C101.229 3.93424 102.173 3.58594 103.357 3.58594C104.419 3.58594 105.288 3.90169 105.965 4.5332C106.648 5.16471 106.99 5.95247 106.99 6.89648C106.99 8.0293 106.417 9.02865 105.271 9.89453L104.178 10.6855L106.629 13.5371C107.013 12.7819 107.205 11.9486 107.205 11.0371H109.607C109.607 12.8861 109.181 14.3835 108.328 15.5293L110.457 18H107.254L106.521 17.1602C105.473 17.8503 104.269 18.1953 102.908 18.1953C101.502 18.1953 100.376 17.8275 99.5293 17.0918C98.6829 16.3496 98.2598 15.3763 98.2598 14.1719ZM103.045 15.9297C103.722 15.9297 104.363 15.7409 104.969 15.3633L102.166 12.1211L101.961 12.2676C101.382 12.7624 101.092 13.3451 101.092 14.0156C101.092 14.582 101.271 15.0443 101.629 15.4023C101.993 15.7539 102.465 15.9297 103.045 15.9297ZM102.01 7.28711C102.01 7.77539 102.296 8.39062 102.869 9.13281L103.621 8.63477C104.005 8.38737 104.269 8.14648 104.412 7.91211C104.562 7.67773 104.637 7.39779 104.637 7.07227C104.637 6.74674 104.516 6.46354 104.275 6.22266C104.035 5.98177 103.725 5.86133 103.348 5.86133C102.944 5.86133 102.618 5.99154 102.371 6.25195C102.13 6.51237 102.01 6.85742 102.01 7.28711ZM111.961 18V3.78125H116.336C117.586 3.78125 118.702 4.06445 119.686 4.63086C120.675 5.19076 121.447 5.99154 122 7.0332C122.553 8.06836 122.83 9.24674 122.83 10.5684V11.2227C122.83 12.5443 122.557 13.7194 122.01 14.748C121.469 15.7767 120.704 16.5742 119.715 17.1406C118.725 17.707 117.609 17.9935 116.365 18H111.961ZM114.891 6.1543V15.6465H116.307C117.452 15.6465 118.328 15.2721 118.934 14.5234C119.539 13.7747 119.848 12.7038 119.861 11.3105V10.5586C119.861 9.11328 119.562 8.01953 118.963 7.27734C118.364 6.52865 117.488 6.1543 116.336 6.1543H114.891ZM124.344 12.6191C124.344 11.571 124.546 10.6367 124.949 9.81641C125.353 8.99609 125.932 8.36133 126.688 7.91211C127.449 7.46289 128.331 7.23828 129.334 7.23828C130.76 7.23828 131.922 7.67448 132.82 8.54688C133.725 9.41927 134.23 10.6042 134.334 12.1016L134.354 12.8242C134.354 14.4453 133.901 15.7474 132.996 16.7305C132.091 17.707 130.877 18.1953 129.354 18.1953C127.83 18.1953 126.613 17.707 125.701 16.7305C124.796 15.7539 124.344 14.4258 124.344 12.7461V12.6191ZM127.166 12.8242C127.166 13.8268 127.355 14.5951 127.732 15.1289C128.11 15.6562 128.65 15.9199 129.354 15.9199C130.037 15.9199 130.571 15.6595 130.955 15.1387C131.339 14.6113 131.531 13.7715 131.531 12.6191C131.531 11.6361 131.339 10.8743 130.955 10.334C130.571 9.79362 130.031 9.52344 129.334 9.52344C128.644 9.52344 128.11 9.79362 127.732 10.334C127.355 10.8678 127.166 11.6979 127.166 12.8242ZM135.682 12.6387C135.682 11.0176 136.066 9.71224 136.834 8.72266C137.609 7.73307 138.65 7.23828 139.959 7.23828C141.118 7.23828 142.02 7.63542 142.664 8.42969L142.781 7.43359H145.34V17.6484C145.34 18.5729 145.128 19.377 144.705 20.0605C144.288 20.7441 143.699 21.265 142.938 21.623C142.176 21.9811 141.284 22.1602 140.262 22.1602C139.487 22.1602 138.732 22.0039 137.996 21.6914C137.26 21.3854 136.704 20.9883 136.326 20.5L137.576 18.7812C138.279 19.569 139.132 19.9629 140.135 19.9629C140.883 19.9629 141.466 19.7611 141.883 19.3574C142.299 18.9603 142.508 18.3939 142.508 17.6582V17.0918C141.857 17.8275 141.001 18.1953 139.939 18.1953C138.67 18.1953 137.641 17.7005 136.854 16.7109C136.072 15.7148 135.682 14.3965 135.682 12.7559V12.6387ZM138.504 12.8438C138.504 13.8008 138.696 14.5527 139.08 15.0996C139.464 15.64 139.992 15.9102 140.662 15.9102C141.521 15.9102 142.137 15.5879 142.508 14.9434V10.5C142.13 9.85547 141.521 9.5332 140.682 9.5332C140.005 9.5332 139.471 9.8099 139.08 10.3633C138.696 10.9167 138.504 11.7435 138.504 12.8438Z" fill="white"/>
<defs>
<linearGradient id="paint0_linear_1_125" x1="160.633" y1="6.43144" x2="166.383" y2="6.43144" gradientUnits="userSpaceOnUse">
<stop stop-color="#4F4C5F"/>
<stop offset="1" stop-color="#77718A"/>
</linearGradient>
<linearGradient id="paint1_linear_1_125" x1="147.999" y1="6.43144" x2="153.749" y2="6.43144" gradientUnits="userSpaceOnUse">
<stop stop-color="#77718A"/>
<stop offset="1" stop-color="#4F4C5F"/>
</linearGradient>
<linearGradient id="paint2_linear_1_125" x1="157.146" y1="18.3759" x2="157.146" y2="5.20574" gradientUnits="userSpaceOnUse">
<stop stop-color="#F0A83E"/>
<stop offset="1" stop-color="#FFF5E3"/>
</linearGradient>
<linearGradient id="paint3_linear_1_125" x1="158.471" y1="9.70323" x2="164.593" y2="9.70323" gradientUnits="userSpaceOnUse">
<stop stop-color="#EFC4AB"/>
<stop offset="1" stop-color="#3C2313"/>
</linearGradient>
<linearGradient id="paint4_linear_1_125" x1="982.868" y1="1492.3" x2="1675.18" y2="1492.3" gradientUnits="userSpaceOnUse">
<stop stop-color="#4F4C5F"/>
<stop offset="1" stop-color="#77718A"/>
</linearGradient>
<linearGradient id="paint5_linear_1_125" x1="11.6131" y1="7.62681" x2="15.6831" y2="7.62681" gradientUnits="userSpaceOnUse">
<stop stop-color="#FD869C"/>
<stop offset="1" stop-color="#FDB0BF"/>
</linearGradient>
<linearGradient id="paint6_linear_1_125" x1="-20.0457" y1="1492.3" x2="672.264" y2="1492.3" gradientUnits="userSpaceOnUse">
<stop stop-color="#77718A"/>
<stop offset="1" stop-color="#4F4C5F"/>
</linearGradient>
<linearGradient id="paint7_linear_1_125" x1="-0.000225107" y1="7.62681" x2="4.07032" y2="7.62681" gradientUnits="userSpaceOnUse">
<stop stop-color="#FDB0BF"/>
<stop offset="1" stop-color="#FD869C"/>
</linearGradient>
<linearGradient id="paint8_linear_1_125" x1="7.84144" y1="12.6512" x2="7.84144" y2="4.96422" gradientUnits="userSpaceOnUse">
<stop stop-color="#FDB58A"/>
<stop offset="1" stop-color="#3C2313"/>
</linearGradient>
<linearGradient id="paint9_linear_1_125" x1="7.84142" y1="17.1232" x2="7.84142" y2="7.21538" gradientUnits="userSpaceOnUse">
<stop stop-color="#FFF5E3"/>
<stop offset="1" stop-color="#F0A83E"/>
</linearGradient>
</defs>
</svg>
