<svg width="166" height="23" viewBox="0 0 166 23" fill="none" xmlns="http://www.w3.org/2000/svg">
<path d="M161.305 4.40702C162.194 3.83529 163.362 3.87591 164.238 4.46576C165.044 4.99598 165.638 5.77413 165.924 6.67241C166.031 7.0138 166.025 7.37921 165.905 7.71681C165.785 8.05442 165.557 8.34708 165.255 8.5533C164.952 8.75951 164.59 8.86881 164.22 8.86569C163.849 8.86257 163.489 8.7472 163.19 8.53593L160.263 6.46437C160.263 5.39238 160.741 4.76925 161.305 4.40849V4.40702Z" fill="url(#paint0_linear_1_14)"/>
<path d="M152.355 4.40702C151.466 3.83529 150.298 3.87591 149.423 4.46576C148.617 4.99598 148.023 5.77413 147.737 6.67241C147.63 7.0138 147.636 7.37921 147.756 7.71681C147.876 8.05442 148.104 8.34708 148.406 8.5533C148.709 8.75951 149.071 8.86881 149.442 8.86569C149.812 8.86257 150.172 8.7472 150.471 8.53593L153.398 6.46437C153.398 5.39238 152.92 4.76925 152.356 4.40849L152.355 4.40702Z" fill="url(#paint1_linear_1_14)"/>
<path d="M151.813 6.24308C151.648 6.08492 151.425 5.99609 151.192 5.99609C150.96 5.99609 150.737 6.08492 150.572 6.24308C149.818 6.96363 149.203 7.80804 148.756 8.73658C149.036 8.8474 149.341 8.88706 149.642 8.85174C149.942 8.81642 150.228 8.70732 150.472 8.5349L151.947 7.27053C152.046 7.10928 152.087 6.92071 152.063 6.73464C152.038 6.54856 151.95 6.37559 151.813 6.24308Z" fill="#5C586F"/>
<path d="M164.124 13.7075C163.693 16.7424 161.668 18.3763 156.83 18.3763C151.299 18.3763 149.445 16.2421 149.445 12.3164C149.446 11.1994 149.72 10.0982 150.244 9.102C150.769 8.1058 151.53 7.2426 152.466 6.58231C153.402 5.92202 154.487 5.4832 155.631 5.30139C156.776 5.11958 157.95 5.1999 159.056 5.53584L164.124 13.7075Z" fill="url(#paint2_linear_1_14)"/>
<path d="M164.215 12.3184C164.217 12.7835 164.187 13.2483 164.124 13.7095C163.419 13.8975 162.678 13.9262 161.96 13.7932C161.241 13.6603 160.565 13.3694 159.982 12.9432C159.4 12.517 158.928 11.967 158.602 11.3362C158.277 10.7053 158.108 10.0107 158.107 9.30648C158.107 7.34849 158.315 6.19524 159.054 5.53735C160.551 5.99287 161.858 6.89581 162.787 8.11514C163.715 9.33447 164.215 10.8068 164.215 12.3184Z" fill="url(#paint3_linear_1_14)"/>
<path d="M151.842 12.2718C152.31 12.2718 152.69 11.9781 152.69 11.6159C152.69 11.2536 152.31 10.96 151.842 10.96C151.374 10.96 150.994 11.2536 150.994 11.6159C150.994 11.9781 151.374 12.2718 151.842 12.2718Z" fill="#FFAECF"/>
<path d="M161.818 12.2718C162.286 12.2718 162.666 11.9781 162.666 11.6159C162.666 11.2536 162.286 10.96 161.818 10.96C161.35 10.96 160.97 11.2536 160.97 11.6159C160.97 11.9781 161.35 12.2718 161.818 12.2718Z" fill="#FFAECF"/>
<path d="M154.955 10.2576C155.104 9.37542 154.482 8.54416 153.565 8.40095C152.649 8.25774 151.785 8.85682 151.636 9.73902C151.488 10.6212 152.11 11.4525 153.027 11.5957C153.943 11.7389 154.807 11.1398 154.955 10.2576Z" fill="white"/>
<path d="M160.365 11.6159C161.293 11.6159 162.046 10.8914 162.046 9.99767C162.046 9.10392 161.293 8.37939 160.365 8.37939C159.436 8.37939 158.684 9.10392 158.684 9.99767C158.684 10.8914 159.436 11.6159 160.365 11.6159Z" fill="white"/>
<path d="M154.306 10.1134C154.394 9.58619 154.022 9.0897 153.474 9.00448C152.927 8.91927 152.411 9.27761 152.322 9.80486C152.234 10.3321 152.606 10.8286 153.154 10.9138C153.702 10.999 154.217 10.6407 154.306 10.1134Z" fill="#383842"/>
<path d="M160.365 10.9618C160.918 10.9618 161.366 10.5301 161.366 9.99751C161.366 9.46494 160.918 9.0332 160.365 9.0332C159.811 9.0332 159.363 9.46494 159.363 9.99751C159.363 10.5301 159.811 10.9618 160.365 10.9618Z" fill="#383842"/>
<path d="M157.388 12.1077C157.187 12.1064 156.992 12.0459 156.828 11.9344C156.665 12.0459 156.47 12.1064 156.269 12.1077C156.128 12.1047 155.989 12.0736 155.861 12.0164C155.733 11.9592 155.618 11.8771 155.525 11.7753C155.501 11.7513 155.483 11.7231 155.471 11.6924C155.46 11.6616 155.454 11.629 155.455 11.5962C155.457 11.5634 155.464 11.5312 155.479 11.5014C155.493 11.4715 155.513 11.4447 155.538 11.4224C155.563 11.4 155.592 11.3826 155.624 11.3712C155.656 11.3597 155.69 11.3544 155.724 11.3556C155.758 11.3568 155.791 11.3644 155.822 11.3781C155.853 11.3917 155.881 11.4111 155.904 11.4351C155.948 11.4891 156.004 11.5328 156.068 11.5628C156.132 11.5929 156.202 11.6085 156.273 11.6085C156.344 11.6085 156.414 11.5929 156.478 11.5628C156.541 11.5328 156.597 11.4891 156.641 11.4351C156.665 11.41 156.694 11.3901 156.727 11.3764C156.76 11.3627 156.795 11.3557 156.83 11.3557C156.866 11.3557 156.901 11.3627 156.934 11.3764C156.967 11.3901 156.996 11.41 157.02 11.4351C157.064 11.4891 157.12 11.5328 157.183 11.5628C157.247 11.5929 157.317 11.6085 157.388 11.6085C157.459 11.6085 157.529 11.5929 157.593 11.5628C157.657 11.5328 157.713 11.4891 157.756 11.4351C157.78 11.4111 157.808 11.3917 157.839 11.3781C157.87 11.3644 157.903 11.3568 157.937 11.3556C157.971 11.3544 158.005 11.3597 158.037 11.3712C158.069 11.3826 158.098 11.4 158.123 11.4224C158.148 11.4447 158.168 11.4715 158.182 11.5014C158.196 11.5312 158.204 11.5634 158.206 11.5962C158.207 11.629 158.201 11.6616 158.189 11.6924C158.178 11.7231 158.16 11.7513 158.136 11.7753C158.042 11.8775 157.927 11.9599 157.799 12.0171C157.67 12.0743 157.53 12.1052 157.388 12.1077H157.388Z" fill="#383842"/>
<path d="M157.751 10.303C157.751 10.5889 157.339 10.8199 156.83 10.8199C156.322 10.8199 155.909 10.5889 155.909 10.303C155.909 10.0172 156.322 9.98389 156.83 9.98389C157.339 9.98389 157.751 10.0177 157.751 10.303Z" fill="#383842"/>
<path d="M11.8065 10.2387C11.2294 10.1546 10.6879 9.91789 10.2423 9.55501C9.7967 9.19213 9.46448 8.7173 9.28266 8.18341C9.10084 7.64951 9.07656 7.07751 9.21251 6.53111C9.34847 5.98471 9.63932 5.48536 10.0527 5.08869C11.2848 3.90264 13.6554 3.54433 14.8875 4.73038C14.9688 4.80861 15.0439 4.89255 15.1123 4.98149L11.8065 10.2387Z" fill="url(#paint4_linear_1_14)"/>
<path d="M14.5152 9.38398C14.1653 9.7215 13.7377 9.9748 13.267 10.1233C12.7963 10.2718 12.2959 10.3113 11.8064 10.2386C11.6112 9.68424 11.5443 9.09548 11.6104 8.51358C11.6764 7.93168 11.8737 7.3707 12.1886 6.86991C12.5034 6.36912 12.9282 5.94063 13.4331 5.61442C13.938 5.28822 14.5109 5.07218 15.1116 4.98145C16.0686 6.21547 15.6654 8.27723 14.5152 9.38398Z" fill="url(#paint5_linear_1_14)"/>
<path d="M3.83973 10.2387C4.41682 10.1546 4.95833 9.91789 5.40394 9.55501C5.84955 9.19213 6.18176 8.7173 6.36358 8.18341C6.5454 7.64951 6.56968 7.07751 6.43373 6.53111C6.29778 5.98471 6.00692 5.48536 5.59356 5.08869C4.36145 3.90264 1.9908 3.54433 0.759203 4.73038C0.677629 4.80848 0.602324 4.89243 0.533936 4.98149L3.83973 10.2387Z" fill="url(#paint6_linear_1_14)"/>
<path d="M1.13143 9.38398C1.48119 9.72149 1.90874 9.97479 2.37934 10.1233C2.84993 10.2718 3.35029 10.3113 3.83973 10.2386C3.98665 9.82267 4.06139 9.38623 4.06093 8.94686C4.06069 7.98971 3.70514 7.06415 3.05842 6.33713C2.4117 5.6101 1.51637 5.12947 0.53394 4.98193C-0.420016 6.21547 -0.0193138 8.27723 1.13143 9.38398Z" fill="url(#paint7_linear_1_14)"/>
<path d="M2.36934 6.65742C2.27289 6.56501 2.157 6.49357 2.02946 6.4479C1.90193 6.40223 1.7657 6.38341 1.62997 6.39268C1.49424 6.40196 1.36214 6.43913 1.24259 6.50168C1.12303 6.56423 1.01879 6.65072 0.936876 6.75532C0.66017 7.10533 0.412444 7.47571 0.195984 7.86305C0.378186 8.43414 0.698696 8.9554 1.13113 9.38392C1.37921 9.62321 1.66709 9.82091 1.98287 9.96887L2.61698 7.52628C2.65704 7.37319 2.65529 7.21273 2.61189 7.06049C2.5685 6.90825 2.48494 6.76939 2.36934 6.65742Z" fill="#FD748D"/>
<path d="M0.793833 12.651C0.754607 12.3647 0.735072 12.0763 0.735355 11.7875C0.751189 9.988 1.50491 8.26737 2.83241 7.00027C4.15992 5.73317 5.95369 5.02222 7.82316 5.02222C9.69263 5.02222 11.4864 5.73317 12.8139 7.00027C14.1414 8.26737 14.8951 9.988 14.911 11.7875C14.9115 12.0764 14.8919 12.3651 14.8525 12.6515L0.793833 12.651Z" fill="url(#paint8_linear_1_14)"/>
<path d="M14.853 12.6514C14.4035 15.8708 11.4272 17.1229 7.8234 17.1229C4.21962 17.1229 1.24283 15.8708 0.793823 12.6509C2.62444 10.966 4.45506 11.5598 6.38738 8.0447C6.52531 7.79364 6.73238 7.58398 6.98589 7.4387C7.17536 7.32966 7.38585 7.25875 7.6046 7.23026C7.82336 7.20176 8.04585 7.21628 8.25862 7.27292C8.47138 7.32957 8.67 7.42717 8.84246 7.55983C9.01491 7.69248 9.15762 7.85743 9.26196 8.0447C11.1907 11.5598 13.0249 10.966 14.8555 12.6514H14.853Z" fill="url(#paint9_linear_1_14)"/>
<path d="M3.27476 11.898C3.70163 11.898 4.04769 11.6302 4.04769 11.2998C4.04769 10.9695 3.70163 10.7017 3.27476 10.7017C2.84788 10.7017 2.50183 10.9695 2.50183 11.2998C2.50183 11.6302 2.84788 11.898 3.27476 11.898Z" fill="#FFAECF"/>
<path d="M12.3713 11.898C12.7982 11.898 13.1442 11.6302 13.1442 11.2998C13.1442 10.9695 12.7982 10.7017 12.3713 10.7017C11.9444 10.7017 11.5984 10.9695 11.5984 11.2998C11.5984 11.6302 11.9444 11.898 12.3713 11.898Z" fill="#FFAECF"/>
<path d="M4.59983 11.2998C5.44629 11.2998 6.13247 10.6393 6.13247 9.82447C6.13247 9.00966 5.44629 8.34912 4.59983 8.34912C3.75338 8.34912 3.0672 9.00966 3.0672 9.82447C3.0672 10.6393 3.75338 11.2998 4.59983 11.2998Z" fill="white"/>
<path d="M11.0462 11.2998C11.8926 11.2998 12.5788 10.6393 12.5788 9.82447C12.5788 9.00966 11.8926 8.34912 11.0462 8.34912C10.1997 8.34912 9.51355 9.00966 9.51355 9.82447C9.51355 10.6393 10.1997 11.2998 11.0462 11.2998Z" fill="white"/>
<path d="M4.59988 10.7041C5.10455 10.7041 5.51366 10.3103 5.51366 9.82445C5.51366 9.33865 5.10455 8.94482 4.59988 8.94482C4.09521 8.94482 3.6861 9.33865 3.6861 9.82445C3.6861 10.3103 4.09521 10.7041 4.59988 10.7041Z" fill="#383842"/>
<path d="M11.0463 10.7041C11.551 10.7041 11.9601 10.3103 11.9601 9.82445C11.9601 9.33865 11.551 8.94482 11.0463 8.94482C10.5416 8.94482 10.1325 9.33865 10.1325 9.82445C10.1325 10.3103 10.5416 10.7041 11.0463 10.7041Z" fill="#383842"/>
<path d="M8.33192 11.7705C8.15038 11.7691 7.97338 11.7157 7.82341 11.6172C7.67358 11.716 7.49649 11.7694 7.31491 11.7705C7.18252 11.7682 7.05206 11.7394 6.9318 11.6861C6.81153 11.6328 6.70408 11.556 6.61622 11.4606C6.57165 11.4118 6.5486 11.3482 6.55196 11.2833C6.55531 11.2185 6.58481 11.1574 6.63419 11.1131C6.68358 11.0688 6.74895 11.0448 6.81642 11.0462C6.8839 11.0475 6.94816 11.0742 6.99557 11.1204C7.03324 11.1673 7.0816 11.2053 7.13691 11.2315C7.19222 11.2576 7.25303 11.2712 7.31465 11.2712C7.37628 11.2712 7.43708 11.2576 7.49239 11.2315C7.54771 11.2053 7.59606 11.1673 7.63374 11.1204C7.658 11.0954 7.68737 11.0754 7.72 11.0617C7.75263 11.0481 7.78783 11.041 7.82341 11.041C7.85899 11.041 7.89419 11.0481 7.92682 11.0617C7.95946 11.0754 7.98882 11.0954 8.01308 11.1204C8.05076 11.1673 8.09911 11.2053 8.15443 11.2315C8.20974 11.2576 8.27055 11.2712 8.33217 11.2712C8.39379 11.2712 8.4546 11.2576 8.50991 11.2315C8.56522 11.2053 8.61358 11.1673 8.65126 11.1204C8.69866 11.0742 8.76293 11.0475 8.8304 11.0462C8.89788 11.0448 8.96325 11.0688 9.01263 11.1131C9.06201 11.1574 9.09151 11.2185 9.09487 11.2833C9.09822 11.3482 9.07517 11.4118 9.0306 11.4606C8.94284 11.556 8.83548 11.6327 8.7153 11.6861C8.59511 11.7394 8.46474 11.7681 8.33242 11.7705H8.33192Z" fill="#383842"/>
<path d="M27.783 12.1895H22.158V18H19.2283V3.78125H28.4861V6.1543H22.158V9.82617H27.783V12.1895ZM35.6834 10.0801C35.2993 10.028 34.9608 10.002 34.6678 10.002C33.6001 10.002 32.9002 10.3633 32.5682 11.0859V18H29.7459V7.43359H32.4119L32.4901 8.69336C33.0565 7.72331 33.841 7.23828 34.8436 7.23828C35.1561 7.23828 35.449 7.2806 35.7225 7.36523L35.6834 10.0801ZM36.2596 12.6191C36.2596 11.571 36.4614 10.6367 36.8651 9.81641C37.2687 8.99609 37.8481 8.36133 38.6033 7.91211C39.3651 7.46289 40.2472 7.23828 41.2498 7.23828C42.6756 7.23828 43.8377 7.67448 44.7361 8.54688C45.6411 9.41927 46.1457 10.6042 46.2498 12.1016L46.2693 12.8242C46.2693 14.4453 45.8169 15.7474 44.9119 16.7305C44.007 17.707 42.7928 18.1953 41.2693 18.1953C39.7459 18.1953 38.5285 17.707 37.617 16.7305C36.7121 15.7539 36.2596 14.4258 36.2596 12.7461V12.6191ZM39.0818 12.8242C39.0818 13.8268 39.2707 14.5951 39.6483 15.1289C40.0259 15.6562 40.5662 15.9199 41.2693 15.9199C41.9529 15.9199 42.4868 15.6595 42.8709 15.1387C43.255 14.6113 43.4471 13.7715 43.4471 12.6191C43.4471 11.6361 43.255 10.8743 42.8709 10.334C42.4868 9.79362 41.9464 9.52344 41.2498 9.52344C40.5597 9.52344 40.0259 9.79362 39.6483 10.334C39.2707 10.8678 39.0818 11.6979 39.0818 12.8242ZM50.6053 7.43359L50.6932 8.6543C51.4484 7.71029 52.4608 7.23828 53.7303 7.23828C54.8501 7.23828 55.6834 7.56706 56.2303 8.22461C56.7772 8.88216 57.0571 9.86523 57.0701 11.1738V18H54.2479V11.2422C54.2479 10.6432 54.1177 10.2103 53.8572 9.94336C53.5968 9.66992 53.1639 9.5332 52.5584 9.5332C51.7641 9.5332 51.1684 9.87174 50.7713 10.5488V18H47.949V7.43359H50.6053ZM62.5975 4.83594V7.43359H64.4041V9.50391H62.5975V14.7773C62.5975 15.168 62.6723 15.4479 62.8221 15.6172C62.9718 15.7865 63.2583 15.8711 63.6815 15.8711C63.994 15.8711 64.2707 15.8483 64.5115 15.8027V17.9414C63.9582 18.1107 63.3885 18.1953 62.8026 18.1953C60.8234 18.1953 59.8143 17.196 59.7752 15.1973V9.50391H58.2322V7.43359H59.7752V4.83594H62.5975Z" fill="white"/>
<path d="M78.2805 13.2637C78.1698 14.7936 77.6034 15.998 76.5813 16.877C75.5657 17.7559 74.2245 18.1953 72.5579 18.1953C70.7349 18.1953 69.2994 17.5833 68.2512 16.3594C67.2096 15.1289 66.6887 13.4427 66.6887 11.3008V10.4316C66.6887 9.06445 66.9296 7.86003 67.4114 6.81836C67.8931 5.77669 68.58 4.97917 69.4719 4.42578C70.3704 3.86589 71.412 3.58594 72.5969 3.58594C74.2375 3.58594 75.5592 4.02539 76.5618 4.9043C77.5644 5.7832 78.1438 7.01693 78.3 8.60547H75.3704C75.2987 7.6875 75.0416 7.02344 74.5989 6.61328C74.1627 6.19661 73.4954 5.98828 72.5969 5.98828C71.6204 5.98828 70.8879 6.33984 70.3997 7.04297C69.9179 7.73958 69.6705 8.82357 69.6575 10.2949V11.3691C69.6575 12.9056 69.8886 14.0286 70.3508 14.7383C70.8196 15.4479 71.5553 15.8027 72.5579 15.8027C73.4628 15.8027 74.1366 15.5977 74.5793 15.1875C75.0286 14.7708 75.2857 14.1296 75.3508 13.2637H78.2805ZM86.1418 18C86.0116 17.7461 85.9172 17.4303 85.8586 17.0527C85.175 17.8145 84.2864 18.1953 83.1926 18.1953C82.1575 18.1953 81.2981 17.8958 80.6145 17.2969C79.9374 16.6979 79.5989 15.9427 79.5989 15.0312C79.5989 13.9115 80.0123 13.0521 80.8391 12.4531C81.6724 11.8542 82.8736 11.5514 84.4426 11.5449H85.7415V10.9395C85.7415 10.4512 85.6145 10.0605 85.3606 9.76758C85.1132 9.47461 84.7193 9.32812 84.179 9.32812C83.7037 9.32812 83.3293 9.44206 83.0559 9.66992C82.789 9.89779 82.6555 10.2103 82.6555 10.6074H79.8333C79.8333 9.99544 80.0221 9.42904 80.3997 8.9082C80.7773 8.38737 81.3111 7.98047 82.0012 7.6875C82.6913 7.38802 83.4661 7.23828 84.3254 7.23828C85.6275 7.23828 86.6594 7.56706 87.4211 8.22461C88.1894 8.87565 88.5735 9.79362 88.5735 10.9785V15.5586C88.58 16.5612 88.72 17.3197 88.9934 17.834V18H86.1418ZM83.8079 16.0371C84.2245 16.0371 84.6086 15.946 84.9602 15.7637C85.3118 15.5749 85.5722 15.3242 85.7415 15.0117V13.1953H84.6868C83.274 13.1953 82.5221 13.6836 82.4309 14.6602L82.4211 14.8262C82.4211 15.1777 82.5448 15.4674 82.7922 15.6953C83.0396 15.9232 83.3782 16.0371 83.8079 16.0371ZM94.1204 4.83594V7.43359H95.927V9.50391H94.1204V14.7773C94.1204 15.168 94.1952 15.4479 94.345 15.6172C94.4947 15.7865 94.7812 15.8711 95.2043 15.8711C95.5168 15.8711 95.7935 15.8483 96.0344 15.8027V17.9414C95.481 18.1107 94.9114 18.1953 94.3254 18.1953C92.3463 18.1953 91.3372 17.196 91.2981 15.1973V9.50391H89.7551V7.43359H91.2981V4.83594H94.1204ZM97.1086 14.1719C97.1086 13.5143 97.2909 12.9056 97.6555 12.3457C98.0266 11.7858 98.7037 11.1641 99.6868 10.4805C99.2636 9.91406 98.9316 9.38346 98.6907 8.88867C98.4498 8.38737 98.3293 7.86654 98.3293 7.32617C98.3293 6.2194 98.6777 5.32096 99.3743 4.63086C100.077 3.93424 101.021 3.58594 102.206 3.58594C103.267 3.58594 104.137 3.90169 104.814 4.5332C105.497 5.16471 105.839 5.95247 105.839 6.89648C105.839 8.0293 105.266 9.02865 104.12 9.89453L103.027 10.6855L105.478 13.5371C105.862 12.7819 106.054 11.9486 106.054 11.0371H108.456C108.456 12.8861 108.03 14.3835 107.177 15.5293L109.306 18H106.103L105.37 17.1602C104.322 17.8503 103.118 18.1953 101.757 18.1953C100.351 18.1953 99.2245 17.8275 98.3782 17.0918C97.5318 16.3496 97.1086 15.3763 97.1086 14.1719ZM101.894 15.9297C102.571 15.9297 103.212 15.7409 103.818 15.3633L101.015 12.1211L100.81 12.2676C100.23 12.7624 99.9407 13.3451 99.9407 14.0156C99.9407 14.582 100.12 15.0443 100.478 15.4023C100.842 15.7539 101.314 15.9297 101.894 15.9297ZM100.859 7.28711C100.859 7.77539 101.145 8.39062 101.718 9.13281L102.47 8.63477C102.854 8.38737 103.118 8.14648 103.261 7.91211C103.411 7.67773 103.486 7.39779 103.486 7.07227C103.486 6.74674 103.365 6.46354 103.124 6.22266C102.883 5.98177 102.574 5.86133 102.197 5.86133C101.793 5.86133 101.467 5.99154 101.22 6.25195C100.979 6.51237 100.859 6.85742 100.859 7.28711ZM110.81 18V3.78125H115.185C116.435 3.78125 117.551 4.06445 118.534 4.63086C119.524 5.19076 120.295 5.99154 120.849 7.0332C121.402 8.06836 121.679 9.24674 121.679 10.5684V11.2227C121.679 12.5443 121.406 13.7194 120.859 14.748C120.318 15.7767 119.553 16.5742 118.564 17.1406C117.574 17.707 116.458 17.9935 115.214 18H110.81ZM113.74 6.1543V15.6465H115.156C116.301 15.6465 117.177 15.2721 117.782 14.5234C118.388 13.7747 118.697 12.7038 118.71 11.3105V10.5586C118.71 9.11328 118.411 8.01953 117.812 7.27734C117.213 6.52865 116.337 6.1543 115.185 6.1543H113.74ZM123.193 12.6191C123.193 11.571 123.394 10.6367 123.798 9.81641C124.202 8.99609 124.781 8.36133 125.536 7.91211C126.298 7.46289 127.18 7.23828 128.183 7.23828C129.609 7.23828 130.771 7.67448 131.669 8.54688C132.574 9.41927 133.079 10.6042 133.183 12.1016L133.202 12.8242C133.202 14.4453 132.75 15.7474 131.845 16.7305C130.94 17.707 129.726 18.1953 128.202 18.1953C126.679 18.1953 125.462 17.707 124.55 16.7305C123.645 15.7539 123.193 14.4258 123.193 12.7461V12.6191ZM126.015 12.8242C126.015 13.8268 126.204 14.5951 126.581 15.1289C126.959 15.6562 127.499 15.9199 128.202 15.9199C128.886 15.9199 129.42 15.6595 129.804 15.1387C130.188 14.6113 130.38 13.7715 130.38 12.6191C130.38 11.6361 130.188 10.8743 129.804 10.334C129.42 9.79362 128.879 9.52344 128.183 9.52344C127.493 9.52344 126.959 9.79362 126.581 10.334C126.204 10.8678 126.015 11.6979 126.015 12.8242ZM134.531 12.6387C134.531 11.0176 134.915 9.71224 135.683 8.72266C136.458 7.73307 137.499 7.23828 138.808 7.23828C139.967 7.23828 140.868 7.63542 141.513 8.42969L141.63 7.43359H144.189V17.6484C144.189 18.5729 143.977 19.377 143.554 20.0605C143.137 20.7441 142.548 21.265 141.786 21.623C141.025 21.9811 140.133 22.1602 139.111 22.1602C138.336 22.1602 137.581 22.0039 136.845 21.6914C136.109 21.3854 135.553 20.9883 135.175 20.5L136.425 18.7812C137.128 19.569 137.981 19.9629 138.984 19.9629C139.732 19.9629 140.315 19.7611 140.732 19.3574C141.148 18.9603 141.357 18.3939 141.357 17.6582V17.0918C140.706 17.8275 139.85 18.1953 138.788 18.1953C137.519 18.1953 136.49 17.7005 135.702 16.7109C134.921 15.7148 134.531 14.3965 134.531 12.7559V12.6387ZM137.353 12.8438C137.353 13.8008 137.545 14.5527 137.929 15.0996C138.313 15.64 138.84 15.9102 139.511 15.9102C140.37 15.9102 140.986 15.5879 141.357 14.9434V10.5C140.979 9.85547 140.37 9.5332 139.531 9.5332C138.853 9.5332 138.32 9.8099 137.929 10.3633C137.545 10.9167 137.353 11.7435 137.353 12.8438Z" fill="#F0A83E"/>
<defs>
<linearGradient id="paint0_linear_1_14" x1="160.265" y1="6.43144" x2="166.002" y2="6.43144" gradientUnits="userSpaceOnUse">
<stop stop-color="#4F4C5F"/>
<stop offset="1" stop-color="#77718A"/>
</linearGradient>
<linearGradient id="paint1_linear_1_14" x1="147.66" y1="6.43144" x2="153.397" y2="6.43144" gradientUnits="userSpaceOnUse">
<stop stop-color="#77718A"/>
<stop offset="1" stop-color="#4F4C5F"/>
</linearGradient>
<linearGradient id="paint2_linear_1_14" x1="156.786" y1="18.3759" x2="156.786" y2="5.20574" gradientUnits="userSpaceOnUse">
<stop stop-color="#F0A83E"/>
<stop offset="1" stop-color="#FFF5E3"/>
</linearGradient>
<linearGradient id="paint3_linear_1_14" x1="158.108" y1="9.70336" x2="164.216" y2="9.70336" gradientUnits="userSpaceOnUse">
<stop stop-color="#EFC4AB"/>
<stop offset="1" stop-color="#3C2313"/>
</linearGradient>
<linearGradient id="paint4_linear_1_14" x1="980.617" y1="1492.3" x2="1671.34" y2="1492.3" gradientUnits="userSpaceOnUse">
<stop stop-color="#4F4C5F"/>
<stop offset="1" stop-color="#77718A"/>
</linearGradient>
<linearGradient id="paint5_linear_1_14" x1="11.5863" y1="7.62681" x2="15.647" y2="7.62681" gradientUnits="userSpaceOnUse">
<stop stop-color="#FD869C"/>
<stop offset="1" stop-color="#FDB0BF"/>
</linearGradient>
<linearGradient id="paint6_linear_1_14" x1="-19.9998" y1="1492.3" x2="670.724" y2="1492.3" gradientUnits="userSpaceOnUse">
<stop stop-color="#77718A"/>
<stop offset="1" stop-color="#4F4C5F"/>
</linearGradient>
<linearGradient id="paint7_linear_1_14" x1="-0.000224591" y1="7.62681" x2="4.061" y2="7.62681" gradientUnits="userSpaceOnUse">
<stop stop-color="#FDB0BF"/>
<stop offset="1" stop-color="#FD869C"/>
</linearGradient>
<linearGradient id="paint8_linear_1_14" x1="7.82352" y1="12.6512" x2="7.82352" y2="4.96422" gradientUnits="userSpaceOnUse">
<stop stop-color="#FDB58A"/>
<stop offset="1" stop-color="#3C2313"/>
</linearGradient>
<linearGradient id="paint9_linear_1_14" x1="7.82351" y1="17.1232" x2="7.82351" y2="7.21538" gradientUnits="userSpaceOnUse">
<stop stop-color="#FFF5E3"/>
<stop offset="1" stop-color="#F0A83E"/>
</linearGradient>
</defs>
</svg>
