<svg width="94" height="82" viewBox="0 0 94 82" fill="none" xmlns="http://www.w3.org/2000/svg">
<path d="M11.2193 16.0667L21.2648 23.9992L22.8852 25.2792L26.6098 28.2192L28.4175 29.647L42.3624 40.6605L32.0163 44.4865L23.4444 47.6573L5.82812 54.1703C5.82812 54.1703 -8.03423 33.2891 11.2193 16.0667Z" fill="#E8E0A6"/>
<path d="M15.1536 19.1725L42.3624 40.6605L10.8138 52.3278C10.8138 52.3278 -1.40996 36.6935 15.1536 19.1725Z" fill="#EEB51D"/>
<path d="M8.87604 49.0311L40.8902 40.3702L11.0277 51.497L8.87604 49.0311Z" fill="white"/>
<path d="M8.26227 30.7777C8.26227 30.7777 25.2858 29.6 41.332 40.4186L15.5968 19.2251C15.5968 19.2251 10.6363 24.0739 8.26227 30.7777Z" fill="#F58921"/>
<path d="M21.2647 23.9992L22.8852 25.2791L26.6097 28.2191L28.4175 29.6469C28.659 31.0134 28.4741 32.4201 27.8874 33.6801C27.3006 34.9401 26.3399 35.9937 25.1328 36.7008C23.9257 37.408 22.5295 37.7351 21.1298 37.6388C19.7301 37.5424 18.3933 37.0272 17.2969 36.1616C16.2006 35.2959 15.3967 34.1209 14.9923 32.7926C14.5878 31.4644 14.6018 30.0459 15.0325 28.7258C15.4632 27.4056 16.2901 26.2463 17.4033 25.402C18.5166 24.5578 19.8634 24.0685 21.2647 23.9992Z" fill="#BD3728"/>
<path d="M27.8765 40.4601C28.9229 40.576 29.8997 41.0358 30.6503 41.7659C31.4009 42.4959 31.882 43.454 32.0163 44.4865L23.4444 47.6573C22.9476 46.9209 22.6737 46.0596 22.6552 45.1747C22.6366 44.2897 22.8741 43.4179 23.3397 42.6619C23.8053 41.9058 24.4796 41.2969 25.2833 40.9069C26.087 40.5168 26.9867 40.3618 27.8765 40.4601Z" fill="#BD3728"/>
<path d="M15.8177 33.6264C15.8177 33.6264 24.5531 38.3494 28.9292 31.459C28.9292 31.459 25.2619 39.3888 19.6233 37.3044C14.5286 35.4191 15.8177 33.6264 15.8177 33.6264Z" fill="white"/>
<path d="M15.4151 30.1819C15.4151 30.1819 20.5587 24.982 26.621 29.3194L20.795 24.0393C20.795 24.0393 15.1634 25.2874 15.4151 30.1819Z" fill="#8F251E"/>
<path d="M21.2647 23.9992L22.8852 25.2791L26.6097 28.2191L28.4175 29.6469C28.659 31.0134 28.4741 32.4201 27.8874 33.6801C27.3006 34.9401 26.3399 35.9937 25.1328 36.7008C23.9257 37.408 22.5295 37.7351 21.1298 37.6388C19.7301 37.5424 18.3933 37.0272 17.2969 36.1616C16.2006 35.2959 15.3967 34.1209 14.9923 32.7926C14.5878 31.4644 14.6018 30.0459 15.0325 28.7258C15.4632 27.4056 16.2901 26.2463 17.4033 25.402C18.5166 24.5578 19.8634 24.0685 21.2647 23.9992V23.9992Z" stroke="#763317" stroke-linecap="round" stroke-linejoin="round"/>
<path d="M23.6304 45.9211L30.9677 43.5534L31.1662 43.9819L23.8135 46.6745L23.6304 45.9211Z" fill="white"/>
<path d="M23.5255 44.4823C23.5255 44.4823 26.0882 41.505 30.5426 42.5679C30.5426 42.5679 28.2889 39.3888 24.7978 41.1788C21.3067 42.9687 23.5255 44.4823 23.5255 44.4823Z" fill="#8F251E"/>
<path d="M27.8765 40.4601C28.9229 40.576 29.8997 41.0358 30.6503 41.7659C31.4009 42.4959 31.882 43.454 32.0163 44.4865L23.4444 47.6573C22.9476 46.9209 22.6737 46.0596 22.6552 45.1747C22.6366 44.2897 22.8741 43.4179 23.3397 42.6619C23.8053 41.9058 24.4796 41.2969 25.2833 40.9069C26.087 40.5168 26.9867 40.3618 27.8765 40.4601V40.4601Z" stroke="#763317" stroke-linecap="round" stroke-linejoin="round"/>
<path d="M4.92639 50.5682C4.92639 50.5682 6.21546 50.6705 5.53457 37.7385L10.5678 51.7527L5.63803 53.6312L4.92639 50.5682Z" fill="white"/>
<path d="M1.64771 33.8351C1.64771 33.8351 6.75923 26.0048 10.2447 25.3303L14.8753 19.4725L11.2192 16.0667C11.2192 16.0667 3.85254 22.3434 1.64771 33.8351Z" fill="#EBCD93"/>
<path d="M11.2193 16.0667L21.2648 23.9992L22.8852 25.2792L26.6098 28.2192L28.4175 29.647L42.3624 40.6605L32.0163 44.4865L23.4444 47.6573L5.82812 54.1703C5.82812 54.1703 -8.03423 33.2891 11.2193 16.0667Z" stroke="#763317" stroke-linecap="round" stroke-linejoin="round"/>
<path d="M15.1536 19.1725L42.3624 40.6605L10.8138 52.3278C10.8138 52.3278 -1.40996 36.6935 15.1536 19.1725Z" stroke="#763317" stroke-linecap="round" stroke-linejoin="round"/>
<path d="M87.3399 26.7982L75.2993 31.2586L73.3573 31.9788L68.8959 33.6374L66.7274 34.4294L50.0157 40.6218L51.9982 29.8833L53.6382 20.9819L57.0077 2.691C57.0077 2.691 82.2493 1.62531 87.3399 26.7982Z" fill="#E8E0A6"/>
<path d="M82.624 28.5453L62.3443 36.0577L60.2974 36.8165L60.0975 36.8897L56.9517 38.0563L50.0129 40.6273L56.0528 7.86598C56.0528 7.86598 75.8949 5.50654 82.624 28.5453Z" fill="#EEB51D"/>
<path d="M59.9088 7.91296L51.0223 39.5284L56.6651 8.47553L59.9088 7.91296Z" fill="white"/>
<path d="M76.0779 16.7467C76.0779 16.7467 68.3743 31.8032 50.7538 39.8767L82.3513 28.8964C82.3513 28.8964 80.6833 22.1982 76.0779 16.7467Z" fill="#F58921"/>
<path d="M75.2992 31.2586L73.3573 31.9787L68.8959 33.6374L66.7274 34.4294C65.4168 33.9342 64.2898 33.0563 63.4961 31.9126C62.7024 30.7688 62.2796 29.4133 62.2839 28.0262C62.2883 26.6392 62.7195 25.2863 63.5204 24.1474C64.3212 23.0085 65.4538 22.1376 66.7674 21.6504C68.081 21.1632 69.5135 21.0828 70.8745 21.42C72.2354 21.7571 73.4603 22.4957 74.3864 23.5377C75.3124 24.5797 75.8958 25.8757 76.0588 27.2533C76.2219 28.631 75.957 30.0251 75.2992 31.2503V31.2586Z" fill="#BD3728"/>
<path d="M57.6144 28.4334C56.9778 29.262 56.0782 29.8552 55.0598 30.1182C54.0415 30.3811 52.9633 30.2984 51.9982 29.8833L53.6382 20.9819C54.5324 20.9375 55.4208 21.1465 56.1989 21.5844C56.9771 22.0223 57.6125 22.6708 58.0305 23.4535C58.4485 24.2363 58.6317 25.1209 58.5585 26.0031C58.4852 26.8853 58.1587 27.7284 57.6172 28.4334H57.6144Z" fill="#BD3728"/>
<path d="M69.7306 21.6992C69.7306 21.6992 61.1517 26.6945 64.8931 33.9415C64.8931 33.9415 59.885 26.7636 64.5855 23.0455C68.8358 19.6825 69.7306 21.6992 69.7306 21.6992Z" fill="white"/>
<path d="M72.928 23.1229C72.928 23.1229 74.8085 30.1556 67.934 33.0749L75.5062 30.8357C75.5062 30.8357 77.3042 25.4202 72.928 23.1229Z" fill="#8F251E"/>
<path d="M75.2992 31.2586L73.3573 31.9787L68.8959 33.6374L66.7274 34.4294C65.4168 33.9342 64.2898 33.0563 63.4961 31.9126C62.7024 30.7688 62.2796 29.4133 62.2839 28.0262C62.2883 26.6392 62.7195 25.2863 63.5204 24.1474C64.3212 23.0085 65.4538 22.1376 66.7674 21.6504C68.081 21.1632 69.5135 21.0828 70.8745 21.42C72.2354 21.7571 73.4603 22.4957 74.3864 23.5377C75.3124 24.5797 75.8958 25.8757 76.0588 27.2533C76.2219 28.631 75.9569 30.0251 75.2992 31.2503V31.2586Z" stroke="#763317" stroke-linecap="round" stroke-linejoin="round"/>
<path d="M55.0489 22.031L53.3432 29.4742L52.8693 29.4217L54.2995 21.8002L55.0489 22.031Z" fill="white"/>
<path d="M56.3519 22.6806C56.3519 22.6806 57.6228 26.3822 54.4169 29.618C54.4169 29.618 58.3317 29.3415 58.568 25.4533C58.8043 21.5652 56.3519 22.6806 56.3519 22.6806Z" fill="#8F251E"/>
<path d="M57.6144 28.4334C56.9778 29.262 56.0782 29.8552 55.0598 30.1182C54.0415 30.3811 52.9633 30.2984 51.9982 29.8833L53.6382 20.9819C54.5324 20.9375 55.4208 21.1465 56.1989 21.5844C56.9771 22.0223 57.6125 22.6708 58.0305 23.4535C58.4485 24.2363 58.6317 25.1209 58.5585 26.0031C58.4852 26.8853 58.1587 27.7284 57.6172 28.4334H57.6144Z" stroke="#763317" stroke-linecap="round" stroke-linejoin="round"/>
<path d="M60.5994 3.77188C60.5994 3.77188 59.85 4.81407 71.432 10.8626L56.6791 7.95999L57.5739 2.81262L60.5994 3.77188Z" fill="white"/>
<path d="M76.8134 9.5647C76.8134 9.5647 80.9938 17.9174 79.7928 21.2223L82.508 28.1555L87.3399 26.7982C87.3399 26.7982 85.6649 17.3272 76.8134 9.5647Z" fill="#EBCD93"/>
<path d="M87.3399 26.7982L75.2993 31.2586L73.3573 31.9788L68.8959 33.6374L66.7274 34.4294L50.0157 40.6218L51.9982 29.8833L53.6382 20.9819L57.0077 2.691C57.0077 2.691 82.2493 1.62531 87.3399 26.7982Z" stroke="#763317" stroke-linecap="round" stroke-linejoin="round"/>
<path d="M82.624 28.5453L50.0157 40.6273L56.0528 7.86598C56.0528 7.86598 75.8963 5.50654 82.624 28.5453Z" stroke="#763317" stroke-linecap="round" stroke-linejoin="round"/>
<path d="M63.1636 12.4522C66.712 15.6313 62.3862 18.3957 62.3862 18.3957L61.0118 16.9001C61.0118 16.9001 60.3212 20.3557 58.101 18.5146C55.9492 16.7315 58.9678 15.2055 58.9678 15.2055L57.5207 14.3638C57.5207 14.3638 59.6151 9.27306 63.1636 12.4522Z" fill="#BF9D69"/>
<path d="M62.8644 12.5904C62.8644 12.5904 60.1464 12.0818 58.7371 14.625L57.5208 14.361C57.5208 14.361 59.7032 9.73198 62.8644 12.5904Z" fill="white"/>
<path d="M58.9678 15.2C58.9678 15.2 55.9492 16.7204 58.101 18.509C60.3212 20.3488 61.0118 16.8946 61.0118 16.8946L62.3862 18.3957C62.3862 18.3957 66.712 15.6313 63.1636 12.4522C59.6151 9.27306 57.5207 14.3638 57.5207 14.3638L58.9678 15.2Z" stroke="#763317" stroke-linecap="round" stroke-linejoin="round"/>
<path d="M69.1559 15.9382C70.8154 13.4032 73.0203 15.8124 73.0203 15.8124L72.2093 16.82C72.2093 16.82 74.4785 16.8961 73.5348 18.4676C72.619 19.9881 71.3383 18.2672 71.3383 18.2672L70.951 19.2541C70.951 19.2541 67.4949 18.4718 69.1559 15.9382Z" fill="#BF9D69"/>
<path d="M69.2761 16.1096C69.2761 16.1096 69.23 17.8525 70.9944 18.469L70.9511 19.2541C70.9511 19.2541 67.7816 18.3695 69.2761 16.1096Z" fill="white"/>
<path d="M71.3384 18.2672C71.3384 18.2672 72.6191 19.9881 73.5348 18.4676C74.4786 16.8961 72.2094 16.82 72.2094 16.82L73.0203 15.8124C73.0203 15.8124 70.8155 13.4032 69.1559 15.9382C67.4964 18.4732 70.9511 19.2555 70.9511 19.2555L71.3384 18.2672Z" stroke="#763317" stroke-linecap="round" stroke-linejoin="round"/>
<path d="M60.3002 36.8165L60.0471 36.7613C60.0471 36.7613 60.0681 36.8082 60.1003 36.8898L56.9545 38.0564C57.0033 37.5315 57.1502 37.0202 57.3879 36.5484L55.7102 36.6866C55.7096 36.6774 55.7096 36.6682 55.7102 36.659C55.6179 36.2374 54.6532 31.3609 59.2055 31.9014C62.4547 32.287 62.5889 34.6188 62.3498 36.0577L60.3002 36.8165Z" fill="#BF9D69"/>
<path d="M59.0405 32.1888C59.0405 32.1888 56.5239 33.3264 56.8622 36.2083L55.7157 36.6865C55.7157 36.6865 54.7944 31.665 59.0405 32.1888Z" fill="white"/>
<path d="M60.3002 36.8165L60.0471 36.7613C60.0471 36.7613 60.0681 36.8082 60.1003 36.8898L56.9545 38.0564C57.0033 37.5315 57.1502 37.0202 57.3879 36.5484L55.7102 36.6866C55.7096 36.6774 55.7096 36.6682 55.7102 36.659C55.6179 36.2374 54.6532 31.3609 59.2055 31.9014C62.4547 32.287 62.5889 34.6188 62.3498 36.0577L60.3002 36.8165Z" stroke="#763317" stroke-linecap="round" stroke-linejoin="round"/>
<path d="M56.2177 2.65779L54.3218 15.2359L54.017 17.2637L53.318 21.9245L52.9768 24.1803L50.3442 41.6321L41.8003 34.7058L34.723 28.9683L20.1826 17.1807C20.1826 17.1807 31.4822 -5.1545 56.2177 2.65779Z" fill="#E8E0A6"/>
<path d="M55.474 7.58125L52.2779 28.7623L51.9563 30.8992L51.9241 31.1079L51.439 34.3866L50.3484 41.6335L24.2931 20.5202C24.2931 20.5202 31.8331 2.22378 55.474 7.58125Z" fill="#EEB51D"/>
<path d="M26.2057 17.2098L49.8577 40.2278L25.1292 20.2852L26.2057 17.2098Z" fill="white"/>
<path d="M41.8633 7.51635C41.8633 7.51635 51.439 21.4781 50.0409 40.6301L55.6543 7.98354C55.6543 7.98354 48.9224 6.17975 41.8633 7.51635Z" fill="#F58921"/>
<path d="M22.8768 14.603C22.8768 14.603 23.436 15.7571 34.4057 8.68018L24.6762 20.0213L20.5559 16.7496L22.8768 14.603Z" fill="white"/>
<path d="M35.8681 3.3973C35.8681 3.3973 45.2872 3.83546 47.6249 6.47688L55.0741 7.49281L56.2177 2.65505C56.2177 2.65505 47.0279 -0.488109 35.8681 3.3973Z" fill="#EBCD93"/>
<path d="M56.2177 2.65779L54.3218 15.2359L54.017 17.2637L53.318 21.9245L52.9768 24.1803L50.3442 41.6321L41.8003 34.7058L34.723 28.9683L20.1826 17.1807C20.1826 17.1807 31.4822 -5.1545 56.2177 2.65779Z" stroke="#763317" stroke-linecap="round" stroke-linejoin="round"/>
<path d="M55.4754 7.58125L50.3443 41.6321L24.2945 20.5202C24.2945 20.5202 31.8332 2.22378 55.4754 7.58125Z" stroke="#763317" stroke-linecap="round" stroke-linejoin="round"/>
<path d="M30.6881 17.3604L32.6902 18.4234C32.8675 18.5116 33.0021 18.6659 33.0645 18.8522C33.1269 19.0385 33.1119 19.2417 33.0229 19.4172L31.6248 21.9826C31.5263 22.1532 31.3634 22.2781 31.1717 22.33C30.98 22.3818 30.7754 22.3563 30.6028 22.259L28.5993 21.1975C28.4219 21.1089 28.2873 20.9543 28.2251 20.7677C28.163 20.5811 28.1784 20.3777 28.2679 20.2023L29.6591 17.6383C29.7078 17.5529 29.7732 17.4779 29.8515 17.4177C29.9298 17.3574 30.0193 17.3131 30.115 17.2873C30.2107 17.2614 30.3106 17.2546 30.4089 17.2672C30.5073 17.2797 30.6022 17.3114 30.6881 17.3604Z" fill="#BD3728"/>
<path d="M28.7754 19.8139C28.7754 19.8139 31.0614 21.6357 31.5717 21.1505L31.1998 22.2991L27.9939 21.1229L28.7754 19.8139Z" fill="white"/>
<path d="M32.6902 18.4234C32.8675 18.5117 33.0021 18.6659 33.0645 18.8523C33.1269 19.0386 33.1119 19.2418 33.0229 19.4172L31.6248 21.9826C31.5263 22.1532 31.3634 22.2782 31.1717 22.33C30.98 22.3819 30.7754 22.3563 30.6028 22.2591L28.5993 21.1975C28.4219 21.109 28.2873 20.9544 28.2251 20.7678C28.163 20.5811 28.1784 20.3777 28.2679 20.2023L29.6591 17.6383C29.7578 17.4676 29.921 17.3426 30.1129 17.2908C30.3048 17.2389 30.5097 17.2645 30.6825 17.3619L32.6902 18.4234Z" stroke="#763317" stroke-linecap="round" stroke-linejoin="round"/>
<path d="M40.0037 14.4965L41.8338 13.8994C41.9925 13.8433 42.1672 13.8517 42.3197 13.9227C42.4722 13.9937 42.59 14.1215 42.6475 14.2781L43.429 16.6279C43.478 16.7868 43.4614 16.9584 43.3828 17.1052C43.3042 17.2521 43.1701 17.3622 43.0096 17.4116L41.1795 18.0087C41.0208 18.0647 40.846 18.0563 40.6936 17.9853C40.5411 17.9144 40.4232 17.7866 40.3658 17.63L39.5842 15.2802C39.5349 15.1213 39.5513 14.9495 39.63 14.8026C39.7086 14.6556 39.843 14.5455 40.0037 14.4965Z" fill="#BD3728"/>
<path d="M40.4133 17.0922C40.4133 17.0922 42.8796 16.7646 42.8796 16.1703L43.3759 17.066L40.7726 18.3279L40.4133 17.0922Z" fill="white"/>
<path d="M41.8339 13.8994C41.9926 13.8433 42.1673 13.8517 42.3198 13.9227C42.4723 13.9937 42.5901 14.1215 42.6476 14.2781L43.4291 16.6279C43.4781 16.7868 43.4615 16.9584 43.3829 17.1052C43.3043 17.2521 43.1701 17.3622 43.0097 17.4116L41.1796 18.0087C41.0208 18.0647 40.8461 18.0563 40.6937 17.9853C40.5412 17.9144 40.4233 17.7866 40.3659 17.63L39.5843 15.2802C39.5354 15.1215 39.5521 14.95 39.6307 14.8034C39.7093 14.6568 39.8434 14.5469 40.0038 14.4979L41.8339 13.8994Z" stroke="#763317" stroke-linecap="round" stroke-linejoin="round"/>
<path d="M45.8031 8.74784L46.8251 9.96419C46.9174 10.0686 46.9641 10.2049 46.955 10.3432C46.9458 10.4816 46.8815 10.6107 46.7762 10.7023L45.1782 12.0126C45.1236 12.0551 45.061 12.0864 44.9942 12.1049C44.9273 12.1234 44.8574 12.1287 44.7884 12.1205C44.7195 12.1123 44.6528 12.0907 44.5923 12.057C44.5318 12.0234 44.4786 11.9782 44.4358 11.9242L43.4109 10.7051C43.3651 10.6534 43.3301 10.5932 43.3079 10.5281C43.2856 10.463 43.2766 10.3942 43.2812 10.3257C43.2859 10.2571 43.3042 10.1901 43.3351 10.1286C43.366 10.067 43.4089 10.0121 43.4613 9.96695L45.0593 8.65661C45.1141 8.61413 45.1769 8.58279 45.244 8.56437C45.3111 8.54596 45.3813 8.54085 45.4504 8.54932C45.5195 8.5578 45.5863 8.5797 45.6468 8.61377C45.7073 8.64784 45.7605 8.6934 45.8031 8.74784Z" fill="#BD3728"/>
<path d="M43.8891 9.85083C43.8891 9.85083 44.8943 11.6394 45.3599 11.4583L44.8091 12.1108L43.0349 10.5005L43.8891 9.85083Z" fill="white"/>
<path d="M46.8251 9.96418C46.9174 10.0686 46.9641 10.2049 46.955 10.3432C46.9458 10.4816 46.8815 10.6107 46.7762 10.7023L45.1782 12.0126C45.1236 12.055 45.061 12.0864 44.9942 12.1049C44.9273 12.1234 44.8574 12.1287 44.7884 12.1205C44.7195 12.1123 44.6528 12.0907 44.5923 12.057C44.5318 12.0233 44.4786 11.9782 44.4358 11.9242L43.4109 10.705C43.3651 10.6533 43.3301 10.5932 43.3079 10.5281C43.2856 10.463 43.2766 10.3942 43.2812 10.3257C43.2859 10.2571 43.3042 10.1901 43.3351 10.1286C43.366 10.067 43.4089 10.0121 43.4613 9.96694L45.0593 8.6566C45.1138 8.61411 45.1763 8.58265 45.2431 8.56403C45.3099 8.54541 45.3798 8.53999 45.4488 8.54807C45.5177 8.55616 45.5844 8.5776 45.6449 8.61116C45.7055 8.64472 45.7588 8.68975 45.8017 8.74368L46.8251 9.96418Z" stroke="#763317" stroke-linecap="round" stroke-linejoin="round"/>
<path d="M36.6496 13.6962L36.9851 14.6748C37.001 14.7169 37.0083 14.7617 37.0066 14.8066C37.005 14.8515 36.9943 14.8956 36.9754 14.9365C36.9564 14.9773 36.9295 15.014 36.8961 15.0446C36.8628 15.0751 36.8236 15.0988 36.781 15.1143L35.5003 15.5387C35.413 15.5655 35.3185 15.557 35.2375 15.515C35.1565 15.473 35.0957 15.401 35.0683 15.3148L34.7314 14.3334C34.7002 14.2485 34.7044 14.1549 34.7429 14.0731C34.7814 13.9912 34.8512 13.9278 34.9369 13.8966L36.2204 13.4654C36.3082 13.44 36.4027 13.4501 36.4831 13.4933C36.5635 13.5366 36.6233 13.6095 36.6496 13.6962Z" fill="#BD3728"/>
<path d="M35.2208 13.9215C35.2208 13.9215 35.4123 15.2457 35.7395 15.2415L35.2487 15.518L34.5497 14.1261L35.2208 13.9215Z" fill="white"/>
<path d="M36.9851 14.6637C37.001 14.7058 37.0083 14.7506 37.0066 14.7955C37.005 14.8404 36.9943 14.8846 36.9754 14.9254C36.9564 14.9662 36.9295 15.003 36.8961 15.0335C36.8628 15.064 36.8236 15.0877 36.781 15.1033L35.5003 15.5387C35.413 15.5655 35.3185 15.557 35.2375 15.515C35.1565 15.473 35.0957 15.401 35.0683 15.3148L34.7314 14.3334C34.7002 14.2485 34.7044 14.1549 34.7429 14.0731C34.7814 13.9912 34.8512 13.9278 34.9369 13.8966L36.2204 13.4654C36.3079 13.439 36.4024 13.4478 36.4833 13.49C36.5642 13.5322 36.625 13.6044 36.6524 13.6907L36.9851 14.6637Z" stroke="#763317" stroke-linecap="round" stroke-linejoin="round"/>
<path d="M49.2844 35.5449L49.6213 36.5249C49.6526 36.6098 49.6487 36.7034 49.6104 36.7855C49.5722 36.8675 49.5028 36.9313 49.4172 36.963L48.1324 37.3929C48.0892 37.4062 48.0438 37.4109 47.9988 37.4068C47.9538 37.4028 47.9101 37.39 47.8701 37.3692C47.8301 37.3484 47.7947 37.32 47.7658 37.2856C47.7369 37.2513 47.7151 37.2117 47.7017 37.169L47.3648 36.189C47.3332 36.1041 47.3369 36.0103 47.3752 35.9282C47.4134 35.846 47.4831 35.7822 47.5689 35.7508L48.8524 35.3196C48.8957 35.3063 48.9413 35.3016 48.9864 35.3058C49.0316 35.3099 49.0755 35.3228 49.1156 35.3438C49.1557 35.3647 49.1913 35.3932 49.2202 35.4277C49.2492 35.4622 49.271 35.502 49.2844 35.5449Z" fill="#BD3728"/>
<path d="M47.8612 35.7771C47.8612 35.7771 48.0527 37.0999 48.3785 37.0957L47.8891 37.3722L47.1831 35.9803L47.8612 35.7771Z" fill="white"/>
<path d="M49.6213 36.5249C49.6526 36.6098 49.6487 36.7034 49.6104 36.7855C49.5722 36.8675 49.5028 36.9313 49.4172 36.963L48.1324 37.3929C48.0892 37.4062 48.0438 37.4109 47.9988 37.4068C47.9538 37.4028 47.9101 37.39 47.8701 37.3692C47.8301 37.3484 47.7947 37.32 47.7658 37.2856C47.7369 37.2513 47.7151 37.2117 47.7017 37.169L47.3648 36.189C47.3332 36.1041 47.3369 36.0103 47.3752 35.9282C47.4134 35.846 47.4831 35.7822 47.5689 35.7508L48.8524 35.3196C48.8957 35.3063 48.9413 35.3016 48.9864 35.3058C49.0316 35.3099 49.0755 35.3228 49.1156 35.3438C49.1557 35.3647 49.1913 35.3932 49.2202 35.4277C49.2492 35.4622 49.271 35.502 49.2844 35.5449L49.6213 36.5249Z" stroke="#763317" stroke-linecap="round" stroke-linejoin="round"/>
<path d="M41.8856 29.9524L41.606 30.949C41.5826 31.0362 41.5256 31.1109 41.4472 31.1572C41.3688 31.2034 41.2753 31.2175 41.1865 31.1964L39.8765 30.8357C39.7891 30.8083 39.7163 30.7479 39.6738 30.6676C39.6314 30.5873 39.6228 30.4937 39.65 30.4072L39.9296 29.412C39.9527 29.3246 40.0097 29.2498 40.0882 29.2037C40.1667 29.1577 40.2605 29.1441 40.3491 29.166L41.6535 29.5295C41.7408 29.5554 41.8143 29.6144 41.8577 29.6937C41.9012 29.7729 41.9112 29.8659 41.8856 29.9524Z" fill="#BD3728"/>
<path d="M40.5798 29.347C40.5798 29.347 39.9786 30.544 40.2498 30.7292L39.6906 30.6781L39.9073 29.1356L40.5798 29.347Z" fill="white"/>
<path d="M41.6018 30.949C41.5784 31.0362 41.5214 31.1109 41.443 31.1572C41.3647 31.2034 41.2711 31.2175 41.1823 31.1964L39.8765 30.8357C39.7891 30.8083 39.7163 30.7479 39.6738 30.6676C39.6314 30.5873 39.6228 30.4937 39.65 30.4072L39.9296 29.412C39.9527 29.3246 40.0097 29.2498 40.0882 29.2037C40.1667 29.1577 40.2605 29.1441 40.3491 29.166L41.6535 29.5295C41.6969 29.5427 41.7371 29.5643 41.772 29.5929C41.8069 29.6215 41.8358 29.6567 41.857 29.6964C41.8781 29.736 41.8912 29.7794 41.8954 29.8241C41.8996 29.8687 41.8948 29.9137 41.8814 29.9566L41.6018 30.949Z" stroke="#763317" stroke-linecap="round" stroke-linejoin="round"/>
<path d="M50.0073 22.1747L50.986 22.5479C51.0719 22.5788 51.1421 22.6421 51.1811 22.7239C51.2201 22.8057 51.2249 22.8994 51.1943 22.9847L50.7049 24.2287C50.6875 24.2701 50.662 24.3076 50.6298 24.3393C50.5977 24.3709 50.5596 24.396 50.5176 24.4131C50.4757 24.4301 50.4308 24.4389 50.3854 24.4388C50.3401 24.4387 50.2952 24.4298 50.2533 24.4125L49.2747 24.0393C49.1887 24.0084 49.1185 23.9452 49.0795 23.8633C49.0405 23.7815 49.0358 23.6878 49.0663 23.6025L49.5543 22.3585C49.5898 22.2749 49.6574 22.2085 49.7423 22.1741C49.8273 22.1396 49.9225 22.1398 50.0073 22.1747Z" fill="#BD3728"/>
<path d="M49.2746 23.4034C49.2746 23.4034 50.4239 24.107 50.6308 23.8582L50.526 24.4042L48.988 24.0448L49.2746 23.4034Z" fill="white"/>
<path d="M50.9846 22.5423C51.0706 22.5732 51.1407 22.6365 51.1797 22.7183C51.2188 22.8001 51.2235 22.8939 51.1929 22.9791L50.7036 24.2231C50.6861 24.2645 50.6606 24.3021 50.6285 24.3337C50.5963 24.3654 50.5582 24.3904 50.5163 24.4075C50.4743 24.4246 50.4294 24.4333 50.3841 24.4332C50.3387 24.4331 50.2938 24.4242 50.252 24.4069L49.2733 24.0338C49.1873 24.0028 49.1171 23.9396 49.0781 23.8578C49.0391 23.776 49.0343 23.6822 49.0649 23.597L49.5529 22.353C49.5884 22.2696 49.6558 22.2036 49.7404 22.1691C49.825 22.1347 49.9199 22.1347 50.0045 22.1692L50.9846 22.5423Z" stroke="#763317" stroke-linecap="round" stroke-linejoin="round"/>
<path d="M52.0974 9.68774L51.9981 10.7161C51.9906 10.8062 51.9476 10.8898 51.8782 10.9488C51.8089 11.0077 51.7189 11.0374 51.6276 11.0313L50.2784 10.893C50.1883 10.8823 50.1061 10.8367 50.0498 10.7663C49.9934 10.6959 49.9676 10.6063 49.9778 10.5171L50.0799 9.48732C50.0831 9.44257 50.0952 9.39888 50.1155 9.35874C50.1357 9.31861 50.1638 9.28282 50.1981 9.25343C50.2324 9.22403 50.2722 9.2016 50.3152 9.18742C50.3583 9.17324 50.4038 9.16759 50.449 9.17079L51.7982 9.30901C51.8887 9.32007 51.971 9.36616 52.0271 9.43717C52.0832 9.50818 52.1085 9.5983 52.0974 9.68774Z" fill="#BD3728"/>
<path d="M50.7036 9.31595C50.7036 9.31595 50.3261 10.6 50.6253 10.73L50.066 10.777L50.0045 9.22058L50.7036 9.31595Z" fill="white"/>
<path d="M51.9981 10.7161C51.9906 10.8062 51.9476 10.8898 51.8782 10.9488C51.8089 11.0077 51.7189 11.0374 51.6276 11.0313L50.2784 10.893C50.1883 10.8823 50.1061 10.8367 50.0498 10.7663C49.9934 10.6959 49.9676 10.6063 49.9778 10.5171L50.0799 9.48732C50.0831 9.44257 50.0952 9.39888 50.1155 9.35874C50.1357 9.31861 50.1638 9.28282 50.1981 9.25343C50.2324 9.22403 50.2722 9.2016 50.3152 9.18742C50.3583 9.17324 50.4038 9.16759 50.449 9.17079L51.7982 9.30901C51.8887 9.32007 51.971 9.36616 52.0271 9.43717C52.0832 9.50818 52.1085 9.5983 52.0974 9.68774L51.9981 10.7161Z" stroke="#763317" stroke-linecap="round" stroke-linejoin="round"/>
<path d="M45.908 21.883L46.9063 22.1927C46.95 22.2049 46.9909 22.2256 47.0265 22.2535C47.0622 22.2814 47.0919 22.316 47.114 22.3553C47.1361 22.3946 47.1501 22.4379 47.1552 22.4825C47.1604 22.5272 47.1565 22.5724 47.144 22.6156L46.7385 23.8942C46.7083 23.9796 46.6453 24.0497 46.563 24.0893C46.4808 24.1289 46.3861 24.1348 46.2995 24.1057L45.3012 23.796C45.2149 23.7709 45.1419 23.7136 45.0976 23.6362C45.0532 23.5589 45.041 23.4675 45.0635 23.3814L45.4704 22.1028C45.4842 22.0597 45.5065 22.0198 45.5361 21.9854C45.5656 21.9509 45.6018 21.9226 45.6426 21.9022C45.6833 21.8817 45.7278 21.8695 45.7733 21.8662C45.8189 21.8629 45.8647 21.8686 45.908 21.883Z" fill="#BD3728"/>
<path d="M45.2579 23.1561C45.2579 23.1561 46.4505 23.785 46.6406 23.5223L46.5721 24.0752L45.0188 23.8154L45.2579 23.1561Z" fill="white"/>
<path d="M46.9063 22.1927C46.95 22.2049 46.9909 22.2256 47.0265 22.2535C47.0622 22.2814 47.0919 22.316 47.114 22.3553C47.1361 22.3946 47.1501 22.4379 47.1552 22.4825C47.1604 22.5272 47.1565 22.5724 47.144 22.6156L46.7385 23.8942C46.7083 23.9795 46.6453 24.0497 46.563 24.0893C46.4808 24.1289 46.3861 24.1348 46.2995 24.1057L45.3012 23.796C45.2149 23.7709 45.1419 23.7136 45.0976 23.6362C45.0532 23.5589 45.041 23.4675 45.0635 23.3814L45.4704 22.1028C45.4849 22.0604 45.5077 22.0212 45.5376 21.9875C45.5675 21.9538 45.6038 21.9262 45.6444 21.9064C45.6851 21.8867 45.7293 21.875 45.7746 21.8722C45.8198 21.8694 45.8651 21.8754 45.908 21.89L46.9063 22.1927Z" stroke="#763317" stroke-linecap="round" stroke-linejoin="round"/>
<path d="M34.8307 23.3979L35.1662 24.3779C35.1979 24.4628 35.1941 24.5566 35.1558 24.6388C35.1176 24.7209 35.0479 24.7847 34.9621 24.8161L33.6828 25.2473C33.5957 25.2738 33.5015 25.265 33.4209 25.2231C33.3402 25.1811 33.2796 25.1094 33.2522 25.0234L32.9153 24.042C32.8836 23.9572 32.8874 23.8634 32.9257 23.7812C32.9639 23.6991 33.0336 23.6353 33.1194 23.6039L34.4043 23.174C34.4908 23.1489 34.5839 23.1582 34.6636 23.2C34.7433 23.2419 34.8033 23.3129 34.8307 23.3979Z" fill="#BD3728"/>
<path d="M33.4031 23.6301C33.4031 23.6301 33.5947 24.9529 33.9204 24.9501L33.4311 25.2266L32.7321 23.8333L33.4031 23.6301Z" fill="white"/>
<path d="M35.1662 24.378C35.1979 24.4629 35.1941 24.5567 35.1558 24.6388C35.1176 24.721 35.0479 24.7847 34.9621 24.8161L33.6828 25.2474C33.5957 25.2738 33.5015 25.2651 33.4209 25.2231C33.3402 25.1812 33.2796 25.1094 33.2522 25.0235L32.9153 24.0421C32.8836 23.9572 32.8874 23.8634 32.9257 23.7813C32.9639 23.6991 33.0336 23.6353 33.1194 23.6039L34.4043 23.1741C34.4916 23.1472 34.5861 23.1557 34.6671 23.1977C34.7481 23.2397 34.8089 23.3117 34.8363 23.398L35.1662 24.378Z" stroke="#763317" stroke-linecap="round" stroke-linejoin="round"/>
<path d="M37.9415 24.4692L38.6406 22.6958C38.6689 22.6181 38.7124 22.5468 38.7686 22.4857C38.8248 22.4247 38.8927 22.3753 38.9682 22.3402C39.0438 22.3052 39.1257 22.2852 39.2091 22.2815C39.2925 22.2777 39.3758 22.2903 39.4543 22.3184L41.778 23.2169C41.8554 23.2492 41.9257 23.2963 41.9847 23.3555C42.0437 23.4147 42.0902 23.4849 42.1217 23.562C42.1531 23.639 42.1688 23.7215 42.1679 23.8046C42.167 23.8877 42.1495 23.9698 42.1163 24.0462L41.4172 25.8196C41.3598 25.9762 41.2419 26.104 41.0895 26.175C40.937 26.246 40.7623 26.2544 40.6035 26.1983L38.2785 25.2985C38.201 25.2663 38.1308 25.2191 38.0718 25.1599C38.0129 25.1006 37.9664 25.0304 37.9351 24.9533C37.9037 24.8762 37.8882 24.7937 37.8893 24.7106C37.8904 24.6275 37.9081 24.5454 37.9415 24.4692Z" fill="#BD3728"/>
<path d="M40.2246 25.8127C40.2246 25.8127 41.543 23.7269 41.0789 23.3482L42.0939 23.5417L41.4158 26.3283L40.2246 25.8127Z" fill="white"/>
<path d="M38.6433 22.6958C38.6716 22.6181 38.7151 22.5468 38.7713 22.4857C38.8276 22.4247 38.8954 22.3753 38.971 22.3402C39.0466 22.3052 39.1284 22.2852 39.2118 22.2815C39.2952 22.2777 39.3785 22.2903 39.457 22.3184L41.7807 23.2169C41.8582 23.2492 41.9284 23.2963 41.9874 23.3555C42.0464 23.4147 42.093 23.4849 42.1244 23.562C42.1559 23.639 42.1716 23.7215 42.1707 23.8046C42.1697 23.8877 42.1522 23.9698 42.119 24.0462L41.42 25.8196C41.3625 25.9762 41.2447 26.104 41.0922 26.175C40.9397 26.246 40.765 26.2544 40.6063 26.1983L38.2812 25.2985C38.2037 25.2663 38.1335 25.2191 38.0746 25.1599C38.0156 25.1006 37.9691 25.0304 37.9378 24.9533C37.9065 24.8762 37.8909 24.7937 37.892 24.7106C37.8931 24.6275 37.9109 24.5454 37.9443 24.4692L38.6433 22.6958Z" stroke="#763317" stroke-linecap="round" stroke-linejoin="round"/>
<path d="M48.6972 13.2097L50.7091 14.509C50.8874 14.6186 51.0146 14.7934 51.0631 14.9953C51.1115 15.1973 51.0773 15.41 50.9677 15.5871L49.2648 18.1622C49.2057 18.2467 49.1302 18.3189 49.0428 18.3746C48.9554 18.4303 48.8577 18.4684 48.7554 18.4867C48.6531 18.5051 48.5481 18.5033 48.4465 18.4815C48.3449 18.4598 48.2486 18.4184 48.1631 18.3598L46.1526 17.0619C45.9738 16.9528 45.846 16.778 45.7975 16.5758C45.749 16.3736 45.7837 16.1607 45.894 15.9838L47.5955 13.4087C47.715 13.2381 47.8982 13.1213 48.1047 13.0839C48.3113 13.0466 48.5243 13.0918 48.6972 13.2097Z" fill="#BD3728"/>
<path d="M46.4589 15.6216C46.4589 15.6216 48.6959 17.7447 49.2831 17.2802L48.7867 18.4551L45.5179 16.9264L46.4589 15.6216Z" fill="white"/>
<path d="M50.7091 14.509C50.8874 14.6186 51.0146 14.7934 51.0631 14.9953C51.1115 15.1973 51.0773 15.41 50.9677 15.5871L49.2648 18.1622C49.2057 18.2467 49.1302 18.3189 49.0428 18.3746C48.9554 18.4303 48.8577 18.4684 48.7554 18.4867C48.6531 18.5051 48.5481 18.5033 48.4465 18.4815C48.3449 18.4598 48.2486 18.4184 48.1631 18.3598L46.1526 17.0619C45.9738 16.9528 45.846 16.778 45.7975 16.5758C45.749 16.3736 45.7837 16.1607 45.894 15.9838L47.5955 13.4087C47.715 13.2381 47.8982 13.1213 48.1047 13.0839C48.3113 13.0466 48.5243 13.0918 48.6972 13.2097L50.7091 14.509Z" stroke="#763317" stroke-linecap="round" stroke-linejoin="round"/>
<path d="M48.4344 28.3961L48.707 30.7555C48.7361 30.9611 48.6815 31.1698 48.5552 31.3356C48.4288 31.5015 48.2411 31.611 48.0331 31.6401L44.9419 31.9898C44.7326 32.0078 44.5246 31.943 44.3637 31.8095C44.2027 31.6761 44.1019 31.4849 44.0835 31.278L43.8108 28.9172C43.7821 28.7116 43.8368 28.5031 43.9631 28.3374C44.0894 28.1716 44.2769 28.062 44.4847 28.0325L47.576 27.6842C47.6796 27.6751 47.7841 27.6863 47.8834 27.7172C47.9827 27.748 48.0748 27.798 48.1545 27.8641C48.2343 27.9302 48.3 28.0112 48.3481 28.1025C48.3961 28.1938 48.4254 28.2936 48.4344 28.3961Z" fill="#BD3728"/>
<path d="M45.1264 28.2316C45.1264 28.2316 44.9041 31.2904 45.6381 31.4411L44.4064 31.8129L43.5088 28.3573L45.1264 28.2316Z" fill="white"/>
<path d="M48.707 30.7555C48.7361 30.9611 48.6815 31.1698 48.5552 31.3356C48.4288 31.5015 48.2411 31.611 48.0331 31.6401L44.9419 31.9898C44.7326 32.0078 44.5246 31.943 44.3637 31.8095C44.2027 31.6761 44.1019 31.4849 44.0835 31.278L43.8108 28.9172C43.7821 28.7116 43.8368 28.5031 43.9631 28.3374C44.0894 28.1716 44.2769 28.062 44.4847 28.0325L47.576 27.6842C47.6796 27.6751 47.7841 27.6863 47.8834 27.7172C47.9827 27.748 48.0748 27.798 48.1545 27.8641C48.2343 27.9302 48.3 28.0112 48.3481 28.1025C48.3961 28.1938 48.4254 28.2936 48.4344 28.3961L48.707 30.7555Z" stroke="#763317" stroke-linecap="round" stroke-linejoin="round"/>
<path d="M15.0626 56.8213L26.846 51.7362L28.7474 50.9138L33.1137 49.0298L35.2361 48.1148L51.5927 41.0641L50.1946 51.8965L49.0327 60.8712L46.6433 79.31C46.6433 79.31 21.494 81.7012 15.0626 56.8213Z" fill="#E8E0A6"/>
<path d="M19.6793 54.8351L39.5228 46.2654L41.5277 45.4015L41.722 45.3172L44.7979 43.9889L51.5941 41.0641L47.3201 74.099C47.3201 74.099 27.6318 77.4882 19.6793 54.8351Z" fill="#EEB51D"/>
<path d="M43.4655 74.2483L50.6448 42.2141L46.6741 73.5185L43.4655 74.2483Z" fill="white"/>
<path d="M26.8474 66.2729C26.8474 66.2729 33.7317 50.8377 50.895 41.8491L19.9281 54.4715C19.9281 54.4715 21.9568 61.0702 26.8474 66.2729Z" fill="#F58921"/>
<path d="M26.846 51.7416L28.7474 50.9192L33.1137 49.0353L35.2361 48.1202C36.5714 48.5462 37.7439 49.3639 38.5978 50.4646C39.4516 51.5653 39.9464 52.8969 40.0162 54.2824C40.0861 55.6678 39.7277 57.0414 38.9888 58.2206C38.2498 59.3998 37.1653 60.3287 35.8795 60.8838C34.5936 61.4389 33.1673 61.5939 31.7902 61.3282C30.4131 61.0625 29.1504 60.3887 28.17 59.3964C27.1896 58.404 26.5379 57.1402 26.3017 55.7728C26.0654 54.4055 26.2558 52.9995 26.8474 51.7416H26.846Z" fill="#BD3728"/>
<path d="M44.6581 53.6423C45.2496 52.7809 46.1166 52.1408 47.1201 51.8248C48.1235 51.5087 49.2053 51.5349 50.1918 51.8993L49.03 60.874C48.1394 60.9654 47.241 60.8034 46.4404 60.407C45.6399 60.0106 44.9705 59.3963 44.5112 58.6365C44.0519 57.8767 43.8217 57.003 43.8477 56.1182C43.8737 55.2334 44.1549 54.3744 44.6581 53.6423Z" fill="#BD3728"/>
<path d="M32.9194 60.9956C32.9194 60.9956 41.2187 55.558 37.0942 48.517C37.0942 48.517 42.4798 55.428 37.9862 59.3812C33.9205 62.9625 32.9194 60.9956 32.9194 60.9956Z" fill="white"/>
<path d="M29.6507 59.7406C29.6507 59.7406 27.3913 52.8129 34.1023 49.5385L26.6601 52.1647C26.6601 52.1647 25.1543 57.6769 29.6507 59.7406Z" fill="#8F251E"/>
<path d="M26.846 51.7416L28.7474 50.9192L33.1137 49.0353L35.2361 48.1202C36.5714 48.5462 37.7439 49.3639 38.5978 50.4646C39.4516 51.5653 39.9464 52.8969 40.0162 54.2824C40.0861 55.6678 39.7277 57.0414 38.9888 58.2206C38.2498 59.3998 37.1653 60.3287 35.8795 60.8838C34.5936 61.4389 33.1673 61.5939 31.7902 61.3282C30.4131 61.0625 29.1504 60.3887 28.17 59.3964C27.1896 58.404 26.5379 57.1402 26.3017 55.7728C26.0654 54.4055 26.2558 52.9995 26.8474 51.7416H26.846Z" stroke="#763317" stroke-linecap="round" stroke-linejoin="round"/>
<path d="M47.5634 59.8954L48.8664 52.3748L49.3432 52.401L48.3225 60.0875L47.5634 59.8954Z" fill="white"/>
<path d="M46.2281 59.3162C46.2281 59.3162 44.7587 55.6879 47.787 52.2877C47.787 52.2877 43.8876 52.7728 43.8653 56.6637C43.8429 60.5547 46.2281 59.3162 46.2281 59.3162Z" fill="#8F251E"/>
<path d="M44.6581 53.6423C45.2496 52.7809 46.1166 52.1408 47.1201 51.8248C48.1235 51.5087 49.2053 51.5349 50.1918 51.8993L49.03 60.874C48.1394 60.9654 47.241 60.8034 46.4404 60.407C45.6399 60.0106 44.9705 59.3963 44.5112 58.6365C44.0519 57.8767 43.8217 57.003 43.8477 56.1182C43.8737 55.2334 44.1549 54.3744 44.6581 53.6423V53.6423Z" stroke="#763317" stroke-linecap="round" stroke-linejoin="round"/>
<path d="M42.9985 78.4198C42.9985 78.4198 43.6906 77.3403 31.8024 71.9041L46.6853 74.0382L46.0674 79.227L42.9985 78.4198Z" fill="white"/>
<path d="M26.4965 73.4839C26.4965 73.4839 21.8827 65.362 22.8977 61.9991L19.8149 55.2166L15.0613 56.8268C15.0613 56.8268 17.2437 66.1955 26.4965 73.4839Z" fill="#EBCD93"/>
<path d="M15.0626 56.8213L26.846 51.7362L28.7474 50.9138L33.1137 49.0298L35.2361 48.1148L51.5927 41.0641L50.1946 51.8965L49.0327 60.8712L46.6433 79.31C46.6433 79.31 21.494 81.7012 15.0626 56.8213Z" stroke="#763317" stroke-linecap="round" stroke-linejoin="round"/>
<path d="M19.6779 54.8337L51.5927 41.0641L47.3187 74.099C47.3187 74.099 27.6304 77.4882 19.6779 54.8337Z" stroke="#763317" stroke-linecap="round" stroke-linejoin="round"/>
<path d="M37.9667 70.6435C37.9667 70.6435 41.9066 64.2479 46.1876 69.2612C46.1876 69.2681 43.6822 73.6912 37.9667 70.6435Z" fill="#56B447"/>
<path d="M46.5315 68.8203C46.5315 68.8203 43.0055 72.0989 39.204 69.9993L38.7384 70.5619C38.7384 70.5619 44.5364 72.9172 46.5315 68.8203Z" fill="white"/>
<path d="M46.073 69.2226C46.073 69.2226 42.6084 66.8258 38.9496 70.45C38.9496 70.45 38.8657 68.6946 40.8398 67.9883C42.814 67.282 45.2439 67.2253 46.073 69.2226Z" fill="#449D46"/>
<path d="M46.1401 69.0194C46.1401 69.0194 43.9156 73.5806 38.0198 70.8978C38.017 70.8978 41.5528 64.2715 46.1401 69.0194Z" stroke="#783518" stroke-linecap="round" stroke-linejoin="round"/>
<path d="M43.2418 47.6904C43.2418 47.6904 46.5134 42.3758 50.0716 46.5445C50.0716 46.5445 47.9898 50.2212 43.2418 47.6904Z" fill="#56B447"/>
<path d="M50.3567 46.1782C50.3567 46.1782 47.4277 48.9026 44.2679 47.1568L43.889 47.6199C43.889 47.6199 48.7 49.5757 50.3567 46.1782Z" fill="white"/>
<path d="M49.9751 46.5058C49.9751 46.5058 47.1048 44.5196 44.0569 47.5273C44.0569 47.5273 43.9884 46.069 45.6284 45.4816C47.2683 44.8942 49.2872 44.8472 49.9751 46.5058Z" fill="#449D46"/>
<path d="M50.0324 46.3372C50.0324 46.3372 48.1841 50.1341 43.2865 47.8991C43.2865 47.8991 46.2197 42.3937 50.0324 46.3372Z" stroke="#783518" stroke-linecap="round" stroke-linejoin="round"/>
<path d="M42.0912 64.6226C42.0912 64.6226 38.2589 63.3537 40.3938 60.5533C40.3938 60.5533 43.0167 61.3232 42.0912 64.6226Z" fill="#56B447"/>
<path d="M40.1142 60.4344C40.1142 60.4344 42.2561 61.8595 41.6018 64.0628L41.9513 64.2355C41.9513 64.2355 42.5092 60.9749 40.1142 60.4344Z" fill="white"/>
<path d="M40.3827 60.6224C40.3827 60.6224 39.5312 62.6875 41.8716 64.1402C41.8716 64.1402 40.9573 64.3904 40.3519 63.4587C39.7465 62.5271 39.4291 61.2845 40.3827 60.6224Z" fill="#449D46"/>
<path d="M40.2666 60.6113C40.2666 60.6113 42.9342 61.214 42.224 64.5645C42.2114 64.5617 38.312 63.532 40.2666 60.6113Z" stroke="#783518" stroke-linecap="round" stroke-linejoin="round"/>
<path d="M43.0321 52.7479C43.0321 52.7479 40.2694 51.8343 41.8073 49.8176C41.8073 49.8176 43.699 50.3705 43.0321 52.7479Z" fill="#56B447"/>
<path d="M41.6074 49.7291C41.6074 49.7291 43.1523 50.7561 42.6797 52.3443L42.9328 52.4687C42.9328 52.4687 43.3298 50.1189 41.6074 49.7291Z" fill="white"/>
<path d="M41.7989 49.8646C41.7989 49.8646 41.1866 51.3519 42.8727 52.401C42.661 52.4445 42.4408 52.4203 42.244 52.3319C42.0471 52.2434 41.8839 52.0952 41.778 51.9089C41.3418 51.2372 41.1125 50.3429 41.7989 49.8646Z" fill="#449D46"/>
<path d="M41.7178 49.8563C41.7178 49.8563 43.6388 50.2917 43.1159 52.7065C43.1215 52.7065 40.3071 51.9628 41.7178 49.8563Z" stroke="#783518" stroke-linecap="round" stroke-linejoin="round"/>
<path d="M27.8107 63.1394C27.8107 63.1394 25.0494 62.2257 26.5859 60.2091C26.5804 60.2091 28.472 60.7606 27.8107 63.1394Z" fill="#56B447"/>
<path d="M26.3819 60.1206C26.3819 60.1206 27.9198 61.1476 27.4543 62.7358L27.7073 62.8602C27.7073 62.8602 28.1058 60.5104 26.3819 60.1206Z" fill="white"/>
<path d="M26.5734 60.2561C26.5734 60.2561 25.9597 61.7447 27.6472 62.7925C27.4354 62.8365 27.215 62.8126 27.0179 62.7244C26.8208 62.6362 26.6573 62.4881 26.5511 62.3018C26.1148 61.63 25.8856 60.7343 26.5734 60.2561Z" fill="#449D46"/>
<path d="M26.4909 60.2478C26.4909 60.2478 28.4133 60.6832 27.896 63.0979C27.896 63.0979 25.0816 62.3502 26.4909 60.2478Z" stroke="#783518" stroke-linecap="round" stroke-linejoin="round"/>
<path d="M22.8418 58.3417C22.8418 58.3417 21.9135 55.6132 24.4664 55.6091C24.4664 55.6091 25.1641 57.4336 22.8418 58.3417Z" fill="#56B447"/>
<path d="M24.4175 55.3976C24.4175 55.3976 24.5224 57.2346 22.9565 57.8221L23.0082 58.0985C23.0082 58.0985 25.1445 56.9927 24.4175 55.3976Z" fill="white"/>
<path d="M24.4246 55.6312C24.4246 55.6312 22.8545 56.0459 23.0264 58.0072C22.8631 57.867 22.7493 57.679 22.7015 57.4704C22.6537 57.2618 22.6745 57.0436 22.7608 56.8476C23.0404 56.0984 23.6248 55.3783 24.4246 55.6312Z" fill="#449D46"/>
<path d="M24.3811 55.5607C24.3811 55.5607 25.1907 57.3383 22.9313 58.3887C22.9313 58.3887 21.8324 55.7155 24.3811 55.5607Z" stroke="#783518" stroke-linecap="round" stroke-linejoin="round"/>
<path d="M32.1798 68.9074C32.1798 68.9074 30.4042 63.6937 35.2823 63.6854C35.2823 63.6854 36.6189 67.17 32.1798 68.9074Z" fill="#56B447"/>
<path d="M35.1914 63.2832C35.1914 63.2832 35.3885 66.794 32.3951 67.915L32.4944 68.4402C32.4944 68.4402 36.5783 66.3296 35.1914 63.2832Z" fill="white"/>
<path d="M35.2026 63.7324C35.2026 63.7324 32.2023 64.5258 32.5336 68.2729C32.5336 68.2729 31.4962 67.4906 32.0275 66.0614C32.5588 64.6322 33.6745 63.2444 35.2026 63.7324Z" fill="#449D46"/>
<path d="M35.1201 63.5942C35.1201 63.5942 36.6664 66.9917 32.349 68.9972C32.349 68.9972 30.2504 63.901 35.1201 63.5942Z" stroke="#783518" stroke-linecap="round" stroke-linejoin="round"/>
<path d="M83.4936 63.4698L73.1853 55.8676L71.5229 54.643L67.7005 51.8274L65.8396 50.4632L51.5368 39.921L61.7431 35.7536L70.2031 32.2981L87.5873 25.2059C87.5873 25.2059 102.154 45.6254 83.4936 63.4698Z" fill="#E8E0A6"/>
<path d="M79.4558 60.4938L62.0954 47.6986L60.3421 46.4063L60.1716 46.2805L57.4788 44.2984L51.5354 39.9195L82.6729 27.2156C82.6729 27.2156 95.4153 42.4352 79.4558 60.4938Z" fill="#EEB51D"/>
<path d="M84.7183 30.4459L53.0173 40.1628L82.4855 28.0546L84.7183 30.4459Z" fill="white"/>
<path d="M85.9515 48.6662C85.9515 48.6662 68.9784 50.4064 52.5742 40.1255L79.0126 60.4579C79.0126 60.4579 83.8068 55.4474 85.9515 48.6662Z" fill="#F58921"/>
<path d="M73.1853 55.8731L71.5229 54.6485L67.7005 51.8329L65.8396 50.4631C65.5521 49.1055 65.6894 47.6934 66.2333 46.4148C66.7771 45.1362 67.7018 44.0515 68.8843 43.3049C70.0668 42.5583 71.4511 42.1853 72.8532 42.2353C74.2554 42.2854 75.6089 42.7562 76.7338 43.5851C77.8588 44.414 78.7019 45.5618 79.151 46.8759C79.6002 48.19 79.6342 49.6081 79.2484 50.9418C78.8626 52.2754 78.0754 53.4613 76.9914 54.342C75.9073 55.2226 74.5779 55.7561 73.1797 55.8717L73.1853 55.8731Z" fill="#BD3728"/>
<path d="M66.0213 39.6404C64.9712 39.5597 63.979 39.1328 63.2037 38.4279C62.4284 37.7231 61.915 36.7813 61.7458 35.7536L70.2059 32.298C70.7278 33.0173 71.0311 33.869 71.0799 34.7529C71.1287 35.6368 70.921 36.5161 70.4814 37.2872C70.0417 38.0584 69.3883 38.6893 68.5982 39.1057C67.808 39.5221 66.914 39.7066 66.0213 39.6376V39.6404Z" fill="#BD3728"/>
<path d="M78.3052 46.0718C78.3052 46.0718 69.4132 41.6418 65.2803 48.6663C65.2803 48.6663 68.6764 40.6204 74.3821 42.5168C79.5412 44.2432 78.3052 46.0718 78.3052 46.0718Z" fill="white"/>
<path d="M78.8239 49.4956C78.8239 49.4956 73.8578 54.8683 67.6571 50.7396L73.6592 55.8234C73.6592 55.8234 79.2405 54.3845 78.8239 49.4956Z" fill="#8F251E"/>
<path d="M73.1853 55.8731L71.5229 54.6485L67.7005 51.8329L65.8396 50.4631C65.5521 49.1055 65.6894 47.6934 66.2333 46.4148C66.7771 45.1362 67.7018 44.0515 68.8843 43.3049C70.0668 42.5583 71.4511 42.1853 72.8532 42.2353C74.2554 42.2854 75.6089 42.7562 76.7338 43.5851C77.8588 44.414 78.7019 45.5618 79.151 46.8759C79.6002 48.19 79.6342 49.6081 79.2484 50.9418C78.8626 52.2754 78.0754 53.4613 76.9914 54.342C75.9073 55.2226 74.5779 55.7561 73.1797 55.8717L73.1853 55.8731Z" stroke="#763317" stroke-linecap="round" stroke-linejoin="round"/>
<path d="M70.0786 34.0438L62.8252 36.6534L62.6127 36.2318L69.8689 33.2974L70.0786 34.0438Z" fill="white"/>
<path d="M70.2325 35.4772C70.2325 35.4772 67.7732 38.5374 63.2838 37.6224C63.2838 37.6224 65.6438 40.731 69.0734 38.8208C72.503 36.9105 70.2325 35.4772 70.2325 35.4772Z" fill="#8F251E"/>
<path d="M66.0213 39.6404C64.9712 39.5597 63.979 39.1328 63.2037 38.4279C62.4284 37.7231 61.915 36.7813 61.7458 35.7536L70.2059 32.298C70.7278 33.0173 71.0311 33.869 71.0799 34.7529C71.1287 35.6368 70.921 36.5161 70.4814 37.2872C70.0417 38.0584 69.3883 38.6893 68.5982 39.1057C67.808 39.5221 66.914 39.7066 66.0213 39.6376V39.6404Z" stroke="#763317" stroke-linecap="round" stroke-linejoin="round"/>
<path d="M88.615 28.779C88.615 28.779 87.3231 28.7195 88.4416 41.6211L82.9358 27.7824L87.7998 25.7408L88.615 28.779Z" fill="white"/>
<path d="M92.4584 45.3945C92.4584 45.3945 87.6153 53.3893 84.1549 54.1785L79.7257 60.187L83.4936 63.4698C83.4936 63.4698 90.6436 56.9595 92.4584 45.3945Z" fill="#EBCD93"/>
<path d="M83.4936 63.4698L73.1853 55.8676L71.5229 54.643L67.7005 51.8274L65.8396 50.4632L51.5368 39.921L61.7431 35.7536L70.2031 32.2981L87.5873 25.2059C87.5873 25.2059 102.154 45.6254 83.4936 63.4698Z" stroke="#763317" stroke-linecap="round" stroke-linejoin="round"/>
<path d="M79.4572 60.4952L51.5368 39.9209L82.6715 27.2156C82.6715 27.2156 95.414 42.4352 79.4572 60.4952Z" stroke="#763317" stroke-linecap="round" stroke-linejoin="round"/>
<path d="M82.0997 34.5123C82.0997 34.5123 77.3559 34.3741 78.7876 30.5177C78.7876 30.5177 82.0005 30.4914 82.0997 34.5123Z" fill="#56B447"/>
<path d="M78.4352 30.4721C78.4352 30.4721 81.3349 31.3512 81.3601 34.0479L81.8145 34.1239C81.8145 34.1239 81.3098 30.2731 78.4352 30.4721Z" fill="white"/>
<path d="M78.7987 30.5952C78.7987 30.5952 78.5555 33.202 81.6872 34.0507C81.6872 34.0507 80.7477 34.6395 79.7439 33.7977C78.74 32.956 77.9571 31.665 78.7987 30.5952Z" fill="#449D46"/>
<path d="M78.6659 30.6214C78.6659 30.6214 81.8718 30.3989 82.2214 34.4059C82.2214 34.4059 77.4775 34.5676 78.6659 30.6214Z" stroke="#783518" stroke-linecap="round" stroke-linejoin="round"/>
<path d="M84.4206 46.6109C84.4206 46.6109 85.4762 51.1833 81.3364 50.7797C81.3364 50.7797 80.5073 47.7098 84.4206 46.6109Z" fill="#56B447"/>
<path d="M81.3797 51.1294C81.3797 51.1294 81.5195 48.1341 84.1507 47.4347L84.1102 46.9813C84.1102 46.9813 80.4653 48.4271 81.3797 51.1294Z" fill="white"/>
<path d="M81.409 50.7506C81.409 50.7506 84.0235 50.336 84.0654 47.1223C84.0654 47.1223 84.8791 47.8742 84.3031 49.045C83.7271 50.2157 82.6617 51.2925 81.409 50.7506Z" fill="#449D46"/>
<path d="M81.4677 50.8778C81.4677 50.8778 80.4471 47.8646 84.2849 46.528C84.2849 46.5211 85.6257 51.016 81.4677 50.8778Z" stroke="#783518" stroke-linecap="round" stroke-linejoin="round"/>
<path d="M61.5055 43.8063C61.5055 43.8063 55.2139 43.6308 57.1126 38.5083C57.107 38.5083 61.3656 38.4737 61.5055 43.8063Z" fill="#56B447"/>
<path d="M56.6385 38.4475C56.6385 38.4475 60.4834 39.6127 60.5169 43.1899L61.1195 43.2894C61.1195 43.2894 60.4512 38.1835 56.6385 38.4475Z" fill="white"/>
<path d="M57.1208 38.6093C57.1208 38.6093 56.7993 42.0648 60.9517 43.1844C60.9517 43.1844 59.7046 43.9681 58.3764 42.8499C57.0481 41.7317 56.0051 40.0233 57.1208 38.6093Z" fill="#449D46"/>
<path d="M56.9461 38.6438C56.9461 38.6438 61.1963 38.3494 61.6605 43.6626C61.6605 43.6626 55.3704 43.8727 56.9461 38.6438Z" stroke="#783518" stroke-linecap="round" stroke-linejoin="round"/>
<path d="M77.9445 36.3231C80.998 36.3328 80.1424 39.4676 80.1424 39.4676L78.8449 39.3391C78.8449 39.3391 80.0081 41.2742 78.1612 41.3322C76.373 41.3958 77.1448 39.3971 77.1448 39.3971L76.0948 39.6086C76.0948 39.6086 74.891 36.3134 77.9445 36.3231Z" fill="#BF9D69"/>
<path d="M77.8634 36.5166C77.8634 36.5166 76.3548 37.4219 76.7854 39.2216L76.0948 39.61C76.0948 39.61 75.1314 36.5028 77.8634 36.5166Z" fill="white"/>
<path d="M77.1448 39.4054C77.1448 39.4054 76.373 41.4027 78.1612 41.3405C80.0081 41.2755 78.8449 39.3473 78.8449 39.3473L80.1424 39.4759C80.1424 39.4759 80.998 36.341 77.9445 36.3313C74.891 36.3216 76.0948 39.6182 76.0948 39.6182L77.1448 39.4054Z" stroke="#763317" stroke-linecap="round" stroke-linejoin="round"/>
<path d="M84.0683 40.1421L84.9869 41.2092C85.0689 41.3005 85.1111 41.4202 85.1043 41.5421C85.0974 41.6641 85.0422 41.7784 84.9505 41.8602L83.5524 43.0365C83.5047 43.0747 83.4498 43.1031 83.3909 43.1203C83.3321 43.1375 83.2704 43.143 83.2093 43.1366C83.1483 43.1302 83.0892 43.1119 83.0353 43.0829C82.9814 43.0539 82.9338 43.0146 82.8953 42.9674L81.9767 41.9017C81.8941 41.8105 81.8514 41.6906 81.858 41.5684C81.8645 41.4461 81.9198 41.3314 82.0117 41.2493L83.4098 40.073C83.5064 39.9959 83.63 39.9598 83.7535 39.9728C83.877 39.9858 83.9902 40.0467 84.0683 40.1421Z" fill="#BD3728"/>
<path d="M82.3933 41.1373C82.3933 41.1373 83.3021 42.7075 83.7117 42.5417L83.2322 43.125L81.6383 41.722L82.3933 41.1373Z" fill="white"/>
<path d="M84.9938 41.2092C85.0758 41.3005 85.118 41.4201 85.1112 41.5421C85.1044 41.664 85.0491 41.7783 84.9574 41.8602L83.5593 43.0364C83.5116 43.0746 83.4567 43.1031 83.3979 43.1203C83.339 43.1374 83.2773 43.143 83.2163 43.1366C83.1553 43.1301 83.0961 43.1119 83.0422 43.0829C82.9883 43.0538 82.9407 43.0146 82.9022 42.9673L81.9837 41.9016C81.9011 41.8104 81.8584 41.6906 81.8649 41.5683C81.8715 41.446 81.9267 41.3313 82.0186 41.2492L83.4167 40.073C83.5132 39.9963 83.6366 39.9605 83.7597 39.9734C83.8829 39.9864 83.9958 40.047 84.0738 40.1421L84.9938 41.2092Z" stroke="#763317" stroke-linecap="round" stroke-linejoin="round"/>
<path d="M65.7892 41.8505L66.6043 42.7974C66.6766 42.8789 66.7137 42.9852 66.7077 43.0934C66.7017 43.2017 66.653 43.3033 66.5721 43.3765L65.3334 44.4201C65.2472 44.4875 65.1377 44.5188 65.0284 44.5071C64.9191 44.4955 64.8188 44.4419 64.749 44.3579L63.9353 43.4138C63.8986 43.3741 63.8703 43.3275 63.852 43.2768C63.8336 43.2261 63.8256 43.1723 63.8285 43.1186C63.8314 43.0648 63.845 43.0122 63.8686 42.9637C63.8922 42.9152 63.9254 42.8718 63.9661 42.8361L65.2062 41.7925C65.2918 41.725 65.4007 41.6933 65.5097 41.7042C65.6186 41.715 65.7189 41.7676 65.7892 41.8505Z" fill="#BD3728"/>
<path d="M64.3016 42.7338C64.3016 42.7338 65.107 44.1284 65.4705 43.9778L65.051 44.4947L63.6389 43.2507L64.3016 42.7338Z" fill="white"/>
<path d="M66.6043 42.7974C66.6766 42.8789 66.7137 42.9852 66.7077 43.0934C66.7017 43.2017 66.653 43.3033 66.5721 43.3765L65.3334 44.4201C65.2472 44.4875 65.1377 44.5187 65.0284 44.5071C64.9191 44.4955 64.8188 44.4419 64.749 44.3579L63.9353 43.4138C63.8986 43.3741 63.8703 43.3275 63.852 43.2768C63.8336 43.2261 63.8256 43.1723 63.8285 43.1186C63.8314 43.0648 63.845 43.0122 63.8686 42.9637C63.8922 42.9152 63.9254 42.8718 63.9661 42.8361L65.2062 41.7925C65.2922 41.7253 65.4013 41.6941 65.5102 41.7055C65.6192 41.7168 65.7193 41.7699 65.7892 41.8533L66.6043 42.7974Z" stroke="#763317" stroke-linecap="round" stroke-linejoin="round"/>
<path d="M76.141 33.8613C75.8837 34.8399 75.6964 35.4826 74.7331 35.4729C73.7697 35.4633 73.1616 34.4985 73.1616 34.4985C72.7421 33.7258 73.1028 32.3478 74.2185 32.3021C75.3343 32.2565 76.3982 32.8827 76.141 33.8613ZM74.9288 33.9525C75.0015 33.6761 74.8952 33.4107 74.6897 33.3581C74.4842 33.3056 74.2591 33.4867 74.1878 33.7618C74.1165 34.0368 74.2213 34.305 74.4255 34.3575C74.6296 34.41 74.8561 34.2289 74.9274 33.9525H74.9288Z" fill="#39B24A"/>
<path d="M74.6897 33.3583C74.8952 33.4108 75.0015 33.6775 74.9288 33.9526C74.8561 34.2277 74.6324 34.4101 74.4254 34.3576C74.2185 34.3051 74.1136 34.0383 74.1877 33.7619C74.2618 33.4854 74.4841 33.3043 74.6897 33.3583Z" fill="#D0D18E"/>
<path d="M73.1616 34.4985C72.7421 33.7258 73.1028 32.3478 74.2185 32.3021C75.3343 32.2565 76.3982 32.8827 76.141 33.8613C75.8837 34.8399 75.6964 35.4826 74.7331 35.4729C73.7697 35.4633 73.1616 34.4985 73.1616 34.4985Z" stroke="#763317" stroke-linecap="round" stroke-linejoin="round"/>
<path d="M80.278 56.5835C80.1102 57.2166 79.9899 57.634 79.3664 57.6285C78.7428 57.6229 78.3471 56.9968 78.3471 56.9968C78.0675 56.4951 78.3094 55.6035 79.0322 55.5731C79.755 55.5427 80.4443 55.9505 80.278 56.5835ZM79.4922 56.643C79.5397 56.4646 79.4698 56.2919 79.337 56.2573C79.2042 56.2228 79.0574 56.3402 79.0112 56.5199C78.9651 56.6996 79.0336 56.871 79.1664 56.9056C79.2993 56.9401 79.4447 56.8213 79.4922 56.643Z" fill="#39B24A"/>
<path d="M79.337 56.2573C79.4768 56.2919 79.5398 56.4647 79.4922 56.643C79.4447 56.8213 79.2993 56.9401 79.1665 56.9056C79.0336 56.871 78.9637 56.6983 79.0113 56.5199C79.0588 56.3416 79.2042 56.2228 79.337 56.2573Z" fill="#D0D18E"/>
<path d="M78.3471 56.9968C78.0675 56.4951 78.3094 55.6035 79.0322 55.5731C79.755 55.5427 80.4443 55.9505 80.278 56.5835C80.1116 57.2166 79.9899 57.634 79.3664 57.6285C78.7428 57.6229 78.3471 56.9968 78.3471 56.9968Z" stroke="#763317" stroke-linecap="round" stroke-linejoin="round"/>
<path d="M47.4445 79.8573L48.6315 67.2017L48.8231 65.1588L49.2635 60.4676L49.4816 58.1897L51.1314 40.6204L60.0472 47.0656L67.4362 52.4065L82.617 63.3799C82.617 63.3799 72.5785 86.3026 47.4445 79.8573Z" fill="#E8E0A6"/>
<path d="M47.9102 74.8993L49.9095 53.5842L50.1122 51.4307L50.1318 51.2206L50.4421 47.913L51.1272 40.6176L78.3178 60.2769C78.3178 60.2769 71.8166 78.9575 47.9102 74.8993Z" fill="#EEB51D"/>
<path d="M76.5939 63.6854L51.6891 41.9984L77.4957 60.5547L76.5939 63.6854Z" fill="white"/>
<path d="M61.5054 74.2193C61.5054 74.2193 51.1593 60.8035 51.4893 41.599L47.7087 74.5137C47.7087 74.5137 54.533 75.9401 61.5054 74.2193Z" fill="#F58921"/>
<path d="M80.0641 66.1043C80.0641 66.1043 79.4405 64.9847 68.8861 72.6505L77.9655 60.7938L82.2619 63.8347L80.0641 66.1043Z" fill="white"/>
<path d="M67.7214 78.0051C67.7214 78.0051 58.2939 78.0825 55.8109 75.5738L48.3155 74.967L47.4445 79.8573C47.4445 79.8573 56.7951 82.496 67.7214 78.0051Z" fill="#EBCD93"/>
<path d="M47.4445 79.8573L48.6315 67.2017L48.8231 65.1588L49.2635 60.4676L49.4816 58.1897L51.1314 40.6204L60.0472 47.0656L67.4362 52.4065L82.617 63.3799C82.617 63.3799 72.5785 86.3026 47.4445 79.8573Z" stroke="#763317" stroke-linecap="round" stroke-linejoin="round"/>
<path d="M47.9087 74.9007L51.1244 40.6217L78.3178 60.2768C78.3178 60.2768 71.8151 78.9575 47.9087 74.9007Z" stroke="#763317" stroke-linecap="round" stroke-linejoin="round"/>
<path d="M66.3638 67.7712L65.9738 66.8036C65.9376 66.7206 65.9362 66.6267 65.9697 66.5426C66.0032 66.4585 66.069 66.3908 66.1527 66.3544L67.411 65.854C67.4969 65.8228 67.5918 65.8265 67.6749 65.8643C67.758 65.9022 67.8225 65.971 67.8542 66.0559L68.2443 67.0151C68.2808 67.0981 68.2825 67.1921 68.2489 67.2764C68.2154 67.3606 68.1493 67.4282 68.0654 67.4643L66.807 67.9647C66.7222 67.996 66.6284 67.9933 66.5456 67.9572C66.4628 67.921 66.3975 67.8543 66.3638 67.7712Z" fill="#BD3728"/>
<path d="M67.7731 67.4644C67.7731 67.4644 67.5075 66.154 67.1831 66.1748L67.6571 65.8748L68.44 67.2253L67.7731 67.4644Z" fill="white"/>
<path d="M65.9794 66.8106C65.9432 66.7275 65.9418 66.6337 65.9753 66.5496C66.0088 66.4654 66.0746 66.3978 66.1583 66.3614L67.4166 65.861C67.5025 65.8297 67.5974 65.8334 67.6805 65.8713C67.7636 65.9091 67.8281 65.978 67.8598 66.0628L68.2499 67.0221C68.2864 67.1051 68.2881 67.1991 68.2545 67.2833C68.221 67.3676 68.1549 67.4352 68.071 67.4713L66.8127 67.9717C66.7268 68.003 66.6319 67.9996 66.5486 67.962C66.4653 67.9245 66.4004 67.8559 66.3681 67.7712L65.9794 66.8106Z" stroke="#763317" stroke-linecap="round" stroke-linejoin="round"/>
<path d="M52.5239 46.6413L52.1338 45.6738C52.0977 45.5909 52.0963 45.4973 52.1298 45.4134C52.1633 45.3294 52.2291 45.2621 52.3127 45.2259L53.5711 44.7256C53.6135 44.7099 53.6586 44.7026 53.7038 44.7042C53.7491 44.7058 53.7936 44.7162 53.8348 44.7348C53.8759 44.7534 53.913 44.7799 53.9438 44.8127C53.9746 44.8455 53.9985 44.884 54.0143 44.926L54.4057 45.8866C54.4418 45.9695 54.4432 46.0632 54.4097 46.1471C54.3762 46.231 54.3104 46.2984 54.2268 46.3345L52.9685 46.8348C52.8835 46.867 52.7892 46.8647 52.7059 46.8284C52.6227 46.7922 52.5573 46.725 52.5239 46.6413Z" fill="#BD3728"/>
<path d="M53.9331 46.3317C53.9331 46.3317 53.6675 45.0213 53.3417 45.042L53.8171 44.7449L54.5986 46.0967L53.9331 46.3317Z" fill="white"/>
<path d="M52.138 45.6806C52.1019 45.5977 52.1005 45.5041 52.134 45.4202C52.1676 45.3363 52.2333 45.2689 52.317 45.2328L53.5753 44.7324C53.6177 44.7167 53.6628 44.7094 53.7081 44.711C53.7533 44.7126 53.7978 44.723 53.839 44.7416C53.8802 44.7603 53.9172 44.7867 53.948 44.8195C53.9788 44.8524 54.0028 44.8909 54.0185 44.9328L54.41 45.8935C54.446 45.9764 54.4475 46.07 54.4139 46.1539C54.3804 46.2378 54.3146 46.3052 54.231 46.3413L52.9727 46.8417C52.9302 46.8574 52.885 46.8647 52.8396 46.8631C52.7943 46.8616 52.7497 46.8512 52.7084 46.8326C52.6671 46.814 52.6299 46.7875 52.599 46.7547C52.568 46.7218 52.5439 46.6833 52.5281 46.6413L52.138 45.6806Z" stroke="#763317" stroke-linecap="round" stroke-linejoin="round"/>
<path d="M60.2247 51.8191L60.454 50.8087C60.4719 50.72 60.5246 50.642 60.6006 50.5917C60.6766 50.5414 60.7697 50.523 60.8594 50.5405L62.182 50.8322C62.226 50.8431 62.2674 50.8626 62.3037 50.8894C62.3401 50.9161 62.3708 50.9497 62.394 50.9882C62.4173 51.0268 62.4326 51.0694 62.4392 51.1138C62.4458 51.1581 62.4434 51.2034 62.4323 51.2468L62.2044 52.26C62.1862 52.3485 62.1334 52.4263 62.0574 52.4765C61.9815 52.5267 61.8886 52.5453 61.799 52.5282L60.475 52.2365C60.3859 52.2137 60.3097 52.157 60.2628 52.0788C60.2159 52.0006 60.2022 51.9072 60.2247 51.8191Z" fill="#BD3728"/>
<path d="M61.5641 52.3526C61.5641 52.3526 62.0968 51.1252 61.8157 50.9594L62.375 50.9815L62.2464 52.5364L61.5641 52.3526Z" fill="white"/>
<path d="M60.454 50.8087C60.4719 50.72 60.5246 50.642 60.6006 50.5917C60.6766 50.5414 60.7697 50.523 60.8594 50.5405L62.182 50.8322C62.226 50.8431 62.2673 50.8626 62.3037 50.8894C62.3401 50.9161 62.3708 50.9497 62.394 50.9882C62.4173 51.0268 62.4326 51.0694 62.4392 51.1138C62.4457 51.1581 62.4434 51.2034 62.4323 51.2468L62.2044 52.26C62.1862 52.3485 62.1333 52.4263 62.0574 52.4765C61.9815 52.5267 61.8886 52.5453 61.7989 52.5282L60.4749 52.2365C60.3865 52.2137 60.3107 52.1574 60.2639 52.0798C60.2171 52.0023 60.203 51.9096 60.2247 51.8218L60.454 50.8087Z" stroke="#763317" stroke-linecap="round" stroke-linejoin="round"/>
<path d="M52.5574 60.0308L51.562 59.7101C51.4743 59.6842 51.4005 59.625 51.3568 59.5455C51.313 59.466 51.3029 59.3727 51.3285 59.2858L51.7479 58.0114C51.7786 57.9262 51.8422 57.8566 51.9248 57.8177C52.0073 57.7788 52.1021 57.7739 52.1883 57.8041L53.1838 58.1234C53.2273 58.136 53.2679 58.1571 53.3032 58.1853C53.3385 58.2135 53.3678 58.2483 53.3895 58.2877C53.4112 58.3271 53.4248 58.3703 53.4296 58.415C53.4343 58.4596 53.4301 58.5047 53.4173 58.5477L52.9978 59.8221C52.9671 59.9073 52.9036 59.977 52.8211 60.0161C52.7386 60.0552 52.6438 60.0605 52.5574 60.0308Z" fill="#BD3728"/>
<path d="M53.2131 58.7564C53.2131 58.7564 52.0275 58.1178 51.8346 58.3791L51.9087 57.8262L53.4592 58.1026L53.2131 58.7564Z" fill="white"/>
<path d="M51.555 59.7101C51.4673 59.6842 51.3935 59.625 51.3498 59.5455C51.306 59.466 51.2959 59.3727 51.3215 59.2858L51.7409 58.0114C51.7716 57.9262 51.8352 57.8566 51.9178 57.8177C52.0003 57.7788 52.0951 57.7739 52.1813 57.8041L53.1768 58.1234C53.2203 58.136 53.2609 58.1571 53.2962 58.1853C53.3315 58.2135 53.3608 58.2483 53.3825 58.2877C53.4042 58.3271 53.4178 58.3703 53.4226 58.415C53.4273 58.4596 53.4231 58.5047 53.4103 58.5477L52.9908 59.8221C52.9601 59.9073 52.8966 59.977 52.8141 60.0161C52.7316 60.0552 52.6368 60.0605 52.5504 60.0308L51.555 59.7101Z" stroke="#763317" stroke-linecap="round" stroke-linejoin="round"/>
<path d="M51.1593 72.6145L51.2041 71.5806C51.2048 71.5358 51.2144 71.4915 51.2325 71.4504C51.2505 71.4092 51.2765 71.372 51.3091 71.3408C51.3417 71.3096 51.3802 71.2851 51.4224 71.2686C51.4646 71.2521 51.5096 71.244 51.555 71.2447L52.9097 71.3014C53.001 71.3081 53.0859 71.3503 53.1459 71.4186C53.2059 71.487 53.2361 71.576 53.2299 71.6663L53.1852 72.7002C53.1833 72.79 53.1457 72.8755 53.0806 72.9381C53.0154 73.0008 52.9279 73.0354 52.837 73.0347L51.4823 72.978C51.4368 72.9754 51.3924 72.9639 51.3515 72.9441C51.3105 72.9244 51.274 72.8968 51.244 72.863C51.2139 72.8292 51.191 72.7898 51.1764 72.7471C51.1619 72.7045 51.1561 72.6594 51.1593 72.6145Z" fill="#BD3728"/>
<path d="M52.577 72.9076C52.577 72.9076 52.8818 71.6042 52.577 71.4908L53.1363 71.4148L53.2859 72.9642L52.577 72.9076Z" fill="white"/>
<path d="M51.2083 71.5806C51.209 71.5358 51.2187 71.4915 51.2367 71.4504C51.2547 71.4092 51.2808 71.372 51.3134 71.3408C51.3459 71.3096 51.3844 71.2851 51.4266 71.2686C51.4688 71.2521 51.5138 71.244 51.5592 71.2447L52.914 71.3014C53.0053 71.3081 53.0901 71.3503 53.1501 71.4186C53.2101 71.487 53.2403 71.576 53.2342 71.6663L53.1894 72.7002C53.1885 72.745 53.1787 72.7893 53.1605 72.8303C53.1423 72.8714 53.1161 72.9086 53.0833 72.9396C53.0506 72.9707 53.012 72.9951 52.9698 73.0114C52.9275 73.0277 52.8824 73.0356 52.8371 73.0347L51.4823 72.978C51.4371 72.9751 51.3929 72.9633 51.3524 72.9434C51.3118 72.9235 51.2756 72.8958 51.2458 72.8621C51.2161 72.8283 51.1933 72.789 51.179 72.7465C51.1646 72.7041 51.1589 72.6592 51.1621 72.6145L51.2083 71.5806Z" stroke="#763317" stroke-linecap="round" stroke-linejoin="round"/>
<path d="M56.6609 60.0958L55.6459 59.8414C55.6009 59.8317 55.5584 59.8131 55.5208 59.7869C55.4833 59.7606 55.4514 59.7271 55.4272 59.6885C55.4029 59.6498 55.3868 59.6067 55.3797 59.5618C55.3726 59.5168 55.3747 59.4709 55.3858 59.4268L55.72 58.1275C55.7448 58.0418 55.8026 57.9691 55.8811 57.9252C55.9595 57.8812 56.0523 57.8695 56.1394 57.8925L57.1544 58.1468C57.1993 58.1568 57.2418 58.1754 57.2793 58.2017C57.3168 58.228 57.3487 58.2614 57.373 58.3C57.3973 58.3386 57.4137 58.3816 57.421 58.4265C57.4284 58.4714 57.4266 58.5173 57.4159 58.5615L57.0873 59.8622C57.062 59.949 57.0029 60.0223 56.9229 60.0661C56.843 60.1098 56.7488 60.1205 56.6609 60.0958Z" fill="#BD3728"/>
<path d="M57.2397 58.7896C57.2397 58.7896 56.0136 58.227 55.8416 58.5007L55.8794 57.9478L57.4439 58.122L57.2397 58.7896Z" fill="white"/>
<path d="M55.6459 59.8414C55.6009 59.8317 55.5584 59.8131 55.5208 59.7869C55.4833 59.7606 55.4514 59.7271 55.4272 59.6885C55.4029 59.6498 55.3868 59.6067 55.3797 59.5618C55.3726 59.5168 55.3747 59.4709 55.3858 59.4268L55.72 58.1275C55.7448 58.0418 55.8026 57.9691 55.8811 57.9252C55.9595 57.8812 56.0523 57.8695 56.1394 57.8925L57.1544 58.1468C57.1993 58.1568 57.2418 58.1754 57.2793 58.2017C57.3168 58.228 57.3487 58.2614 57.373 58.3C57.3973 58.3386 57.4137 58.3816 57.421 58.4265C57.4284 58.4714 57.4266 58.5173 57.4159 58.5615L57.0873 59.8622C57.0622 59.9477 57.0043 60.0201 56.926 60.064C56.8476 60.1079 56.755 60.1198 56.6679 60.0971L55.6459 59.8414Z" stroke="#763317" stroke-linecap="round" stroke-linejoin="round"/>
<path d="M67.6375 57.9768L67.2461 57.0176C67.21 56.9343 67.2087 56.8404 67.2425 56.7562C67.2763 56.672 67.3424 56.6045 67.4264 56.5684L68.6847 56.068C68.7706 56.037 68.8654 56.0406 68.9486 56.0781C69.0318 56.1156 69.0967 56.184 69.1293 56.2684L69.5194 57.2291C69.5373 57.2705 69.5467 57.315 69.5472 57.3601C69.5476 57.4052 69.5389 57.4499 69.5218 57.4917C69.5046 57.5334 69.4793 57.5714 69.4472 57.6035C69.4151 57.6355 69.3769 57.6609 69.3348 57.6783L68.0765 58.1786C67.9912 58.209 67.8973 58.2048 67.815 58.167C67.7328 58.1292 67.669 58.0609 67.6375 57.9768Z" fill="#BD3728"/>
<path d="M69.0468 57.6672C69.0468 57.6672 68.7812 56.3569 68.4554 56.379L68.9294 56.0804L69.7109 57.4336L69.0468 57.6672Z" fill="white"/>
<path d="M67.2461 57.0176C67.21 56.9343 67.2087 56.8404 67.2425 56.7562C67.2763 56.672 67.3424 56.6045 67.4264 56.5684L68.6847 56.068C68.7706 56.037 68.8654 56.0406 68.9486 56.0781C69.0318 56.1156 69.0967 56.184 69.1293 56.2684L69.5194 57.2291C69.5373 57.2705 69.5467 57.3151 69.5472 57.3601C69.5476 57.4052 69.5389 57.4499 69.5218 57.4917C69.5046 57.5334 69.4793 57.5714 69.4472 57.6035C69.4151 57.6355 69.3769 57.6609 69.3348 57.6783L68.0765 58.1786C68.0341 58.1943 67.9888 58.2015 67.9435 58.1998C67.8982 58.1982 67.8537 58.1876 67.8125 58.1689C67.7713 58.1501 67.7342 58.1235 67.7035 58.0905C67.6728 58.0576 67.6489 58.0189 67.6333 57.9768L67.2461 57.0176Z" stroke="#763317" stroke-linecap="round" stroke-linejoin="round"/>
<path d="M70.9539 63.1988C70.3849 61.9465 70.0297 61.1075 71.0587 60.3086C72.0878 59.5097 73.56 60.0183 73.56 60.0183C74.6785 60.4828 75.4726 62.2465 74.3303 63.2334C73.1881 64.2203 71.5229 64.4498 70.9539 63.1988ZM72.1591 62.082C72.3198 62.4359 72.6624 62.628 72.9252 62.5105C73.1881 62.393 73.2692 62.0143 73.1098 61.6604C72.9504 61.3066 72.6065 61.1144 72.3422 61.2306C72.078 61.3467 71.9983 61.7282 72.1591 62.082Z" fill="#39B24A"/>
<path d="M72.9252 62.5106C72.6624 62.628 72.3199 62.4359 72.1591 62.0821C71.9983 61.7282 72.0808 61.3467 72.3422 61.2306C72.6037 61.1145 72.949 61.3067 73.1098 61.6605C73.2706 62.0143 73.1881 62.3944 72.9252 62.5106Z" fill="#D0D18E"/>
<path d="M73.56 60.0183C74.6785 60.4828 75.4726 62.2465 74.3303 63.2334C73.1881 64.2203 71.5229 64.4498 70.9539 63.1988C70.3849 61.9479 70.0297 61.1075 71.0587 60.3086C72.0878 59.5097 73.56 60.0183 73.56 60.0183Z" stroke="#763317" stroke-linecap="round" stroke-linejoin="round"/>
<path d="M64.8441 59.4475C63.5159 59.8442 62.6281 60.0861 61.9584 58.9748C61.2887 57.8635 61.9877 56.4868 61.9877 56.4868C62.5973 55.4571 64.4694 54.8973 65.3125 56.144C66.1555 57.3908 66.1723 59.0453 64.8441 59.4475ZM63.8822 58.1178C64.2583 58.0059 64.496 57.6949 64.4121 57.4267C64.3282 57.1586 63.9563 57.0245 63.5816 57.1365C63.2069 57.2484 62.9692 57.5608 63.0531 57.8276C63.137 58.0943 63.5033 58.2298 63.8822 58.1178Z" fill="#39B24A"/>
<path d="M64.4079 57.4226C64.4918 57.699 64.2541 58.0059 63.878 58.1137C63.502 58.2215 63.1314 58.0971 63.049 57.8248C62.9665 57.5525 63.2014 57.2401 63.5775 57.1337C63.9535 57.0272 64.324 57.1503 64.4079 57.4226Z" fill="#D0D18E"/>
<path d="M61.9877 56.4799C62.5973 55.4502 64.4694 54.8904 65.3125 56.1371C66.1555 57.3839 66.1723 59.0398 64.8441 59.4434C63.5159 59.847 62.6281 60.082 61.9584 58.9707C61.2887 57.8594 61.9877 56.4799 61.9877 56.4799Z" stroke="#763317" stroke-linecap="round" stroke-linejoin="round"/>
<path d="M56.5938 54.5144C54.6014 55.1101 53.2718 55.4709 52.268 53.8067C51.2641 52.1425 52.3127 50.0747 52.3127 50.0747C53.2243 48.5308 56.0317 47.6931 57.2942 49.5619C58.5567 51.4307 58.5847 53.9186 56.5938 54.5144ZM55.1453 52.5281C55.7046 52.3609 56.0625 51.8937 55.9381 51.4859C55.8136 51.0782 55.2558 50.8833 54.6937 51.0519C54.1317 51.2206 53.7765 51.6877 53.901 52.0941C54.0254 52.5005 54.5833 52.6968 55.1453 52.5281Z" fill="#39B24A"/>
<path d="M55.9381 51.486C56.0625 51.9007 55.7088 52.3609 55.1453 52.5282C54.5819 52.6954 54.0268 52.5019 53.901 52.0942C53.7752 51.6864 54.1317 51.2206 54.6937 51.052C55.2558 50.8833 55.8136 51.0769 55.9381 51.486Z" fill="#D0D18E"/>
<path d="M52.3128 50.0719C53.2243 48.528 56.0318 47.6903 57.2943 49.5591C58.5568 51.4279 58.5847 53.9186 56.5952 54.5144C54.6057 55.1101 53.2733 55.4708 52.2694 53.8067C51.2656 52.1425 52.3128 50.0719 52.3128 50.0719Z" stroke="#763317" stroke-linecap="round" stroke-linejoin="round"/>
<path d="M62.2045 72.5551C60.2122 73.1495 58.8826 73.5116 57.8787 71.8474C56.8749 70.1832 57.9221 68.1154 57.9221 68.1154C58.8392 66.5687 61.6453 65.7311 62.9036 67.6026C64.1619 69.4741 64.1996 71.9594 62.2045 72.5551ZM60.7561 70.5689C61.3153 70.4016 61.6746 69.9344 61.5488 69.5267C61.423 69.1189 60.8679 68.924 60.3045 69.0926C59.741 69.2613 59.3873 69.7271 59.5117 70.1362C59.6362 70.5454 60.1982 70.7375 60.7603 70.5689H60.7561Z" fill="#39B24A"/>
<path d="M61.5529 69.5267C61.6788 69.9413 61.3222 70.4016 60.7602 70.5688C60.1982 70.7361 59.6417 70.544 59.5159 70.1362C59.39 69.7285 59.7466 69.2599 60.3086 69.0926C60.8706 68.9254 61.4285 69.123 61.5529 69.5267Z" fill="#D0D18E"/>
<path d="M57.9262 68.1126C58.8392 66.5687 61.6452 65.7311 62.9035 67.6026C64.1618 69.4741 64.194 71.9621 62.2045 72.5579C60.2149 73.1536 58.8825 73.5143 57.8787 71.8502C56.8748 70.186 57.9262 68.1126 57.9262 68.1126Z" stroke="#763317" stroke-linecap="round" stroke-linejoin="round"/>
<path d="M53.0203 66.284C52.1968 66.5286 51.6487 66.6779 51.2349 65.9909C50.821 65.304 51.2531 64.4512 51.2531 64.4512C51.6305 63.8126 52.791 63.467 53.3097 64.2383C53.8284 65.0096 53.8424 66.0379 53.0203 66.284ZM52.4177 65.4643C52.6484 65.3952 52.7952 65.2017 52.7434 65.0331C52.6917 64.8644 52.4638 64.7843 52.2303 64.8548C51.9969 64.9253 51.8514 65.116 51.9032 65.2846C51.9549 65.4533 52.1898 65.5293 52.4177 65.4643Z" fill="#39B24A"/>
<path d="M52.749 65.0331C52.8007 65.2017 52.6539 65.3952 52.4232 65.4643C52.1925 65.5334 51.9604 65.4533 51.9087 65.2847C51.857 65.116 52.0038 64.9239 52.2359 64.8548C52.4679 64.7857 52.6972 64.8658 52.749 65.0331Z" fill="#D0D18E"/>
<path d="M51.2531 64.4512C51.6305 63.8126 52.791 63.467 53.3097 64.2383C53.8284 65.0096 53.8424 66.0352 53.0203 66.284C52.1982 66.5328 51.6487 66.6779 51.2349 65.9909C50.821 65.304 51.2531 64.4512 51.2531 64.4512Z" stroke="#763317" stroke-linecap="round" stroke-linejoin="round"/>
<path d="M65.0608 64.4539C64.2387 64.7 63.6907 64.8492 63.2754 64.1623C62.8602 63.4753 63.295 62.6211 63.295 62.6211C63.6711 61.9839 64.8329 61.637 65.3502 62.4096C65.8675 63.1823 65.8829 64.2093 65.0608 64.4539ZM64.4638 63.6343C64.6959 63.5652 64.8427 63.3717 64.791 63.203C64.7393 63.0344 64.5114 62.9556 64.2779 63.0247C64.0444 63.0938 63.899 63.2873 63.9493 63.456C63.9997 63.6246 64.2317 63.7048 64.4638 63.6343Z" fill="#39B24A"/>
<path d="M64.791 63.203C64.8427 63.3717 64.6959 63.5652 64.4638 63.6343C64.2317 63.7034 64.0024 63.6232 63.9493 63.456C63.8961 63.2887 64.0443 63.0938 64.2778 63.0247C64.5113 62.9556 64.7392 63.0413 64.791 63.203Z" fill="#D0D18E"/>
<path d="M63.295 62.6266C63.6711 61.9894 64.8329 61.6425 65.3502 62.4151C65.8675 63.1878 65.8829 64.212 65.0608 64.4594C64.2387 64.7068 63.6907 64.8547 63.2754 64.1678C62.8602 63.4808 63.295 62.6266 63.295 62.6266Z" stroke="#763317" stroke-linecap="round" stroke-linejoin="round"/>
<path d="M59.0476 63.796C58.0689 64.089 57.416 64.2659 56.9224 63.449C56.4289 62.6321 56.9448 61.6148 56.9448 61.6148C57.3922 60.8574 58.7722 60.4441 59.3929 61.3633C60.0137 62.2824 60.0263 63.5043 59.0476 63.796ZM58.3373 62.8284C58.617 62.7455 58.7875 62.516 58.726 62.317C58.6645 62.118 58.3905 62.0198 58.115 62.1028C57.8396 62.1857 57.6648 62.4151 57.725 62.6142C57.7851 62.8132 58.0605 62.9031 58.3373 62.8215V62.8284Z" fill="#39B24A"/>
<path d="M58.726 62.3101C58.7875 62.5091 58.6127 62.7386 58.3373 62.8215C58.0619 62.9044 57.7864 62.8091 57.7249 62.6073C57.6634 62.4055 57.8382 62.1774 58.115 62.0959C58.3918 62.0143 58.6644 62.1083 58.726 62.3101Z" fill="#D0D18E"/>
<path d="M56.9448 61.6148C57.3922 60.8574 58.7722 60.4441 59.3929 61.3633C60.0137 62.2824 60.0263 63.5043 59.0476 63.796C58.0689 64.0876 57.416 64.2659 56.9224 63.449C56.4289 62.6321 56.9448 61.6148 56.9448 61.6148Z" stroke="#763317" stroke-linecap="round" stroke-linejoin="round"/>
<path d="M55.446 70.432C54.4673 70.725 53.8144 70.9019 53.3209 70.085C52.8273 69.2681 53.3432 68.2508 53.3432 68.2508C53.792 67.492 55.1706 67.0801 55.7913 67.9979C56.4121 68.9157 56.4247 70.1403 55.446 70.432ZM54.7358 69.4575C55.0154 69.3746 55.1859 69.1451 55.1244 68.9447C55.0629 68.7443 54.7903 68.6489 54.5135 68.7318C54.2366 68.8148 54.0633 69.0442 54.1234 69.2433C54.1835 69.4423 54.4603 69.5377 54.7358 69.4575Z" fill="#39B24A"/>
<path d="M55.1244 68.9448C55.1859 69.1452 55.0112 69.3746 54.7357 69.4576C54.4603 69.5405 54.1863 69.4451 54.1233 69.2433C54.0604 69.0415 54.238 68.8148 54.5134 68.7319C54.7889 68.649 55.0629 68.7443 55.1244 68.9448Z" fill="#D0D18E"/>
<path d="M53.3432 68.2508C53.792 67.492 55.1706 67.0801 55.7913 67.9979C56.4121 68.9157 56.4247 70.1403 55.446 70.4319C54.4673 70.7236 53.8144 70.9019 53.3209 70.085C52.8273 69.2681 53.3432 68.2508 53.3432 68.2508Z" stroke="#763317" stroke-linecap="round" stroke-linejoin="round"/>
</svg>
