<svg width="139" height="54" viewBox="0 0 139 54" fill="none" xmlns="http://www.w3.org/2000/svg">
<path d="M135.662 0.651001H135.62H10.0098H9.96757C9.16535 0.651001 8.46869 1.05554 8.02537 1.66236C6.9276 2.85351 1.60766 8.49463 1.60766 8.51711C1.14322 8.98907 0.868774 9.66331 0.868774 10.405V50.5446C0.868774 52.0054 1.98765 53.1966 3.35986 53.1966H129.012C129.709 53.1966 130.342 52.8819 130.785 52.41C130.806 52.3875 137.414 45.353 137.414 45.353C137.878 44.881 138.153 44.2068 138.153 43.4651V3.303C138.153 1.84215 137.034 0.651001 135.662 0.651001Z" fill="white"/>
<path d="M135.662 0H135.619H10.0097H9.96747C9.01748 0 8.15193 0.471966 7.58194 1.21363C6.46306 2.40478 1.20645 8.02343 1.16423 8.0459C0.573126 8.67519 0.235352 9.50675 0.235352 10.4057V50.5454C0.235352 52.3658 1.62867 53.8491 3.33865 53.8491H128.991C129.835 53.8491 130.616 53.4895 131.207 52.8602L137.836 45.8032C138.427 45.1739 138.765 44.3424 138.765 43.4434V3.30377C138.765 1.48332 137.372 0 135.662 0ZM135.619 1.326C136.654 1.326 137.477 2.22498 137.477 3.30377V43.4434C137.477 44.5446 136.633 45.4212 135.619 45.4212H9.96747C8.93304 45.4212 8.10971 44.5222 8.10971 43.4434V3.30377C8.10971 2.87675 8.23638 2.47221 8.4686 2.13509C8.59526 2.00024 8.67971 1.91034 8.67971 1.91034C9.03859 1.52827 9.50303 1.30353 10.0097 1.30353H135.619V1.326ZM130.321 51.9163C129.962 52.2984 129.497 52.5231 128.991 52.5231H3.33865C2.30422 52.5231 1.48089 51.6241 1.48089 50.5454V10.4057C1.48089 9.86635 1.67089 9.3719 2.05089 8.98984C2.09311 8.94489 4.92197 5.93329 6.88528 3.84316V43.4434C6.88528 45.2638 8.2786 46.7472 9.98858 46.7472H135.218L130.321 51.9163Z" fill="black"/>
<path d="M22.8876 14.5402H37.813V19.3947H28.3764V21.7995H37.4119V26.0022H28.3764V32.2052H22.9087V14.5402H22.8876Z" fill="black"/>
<path d="M53.6248 32.2052L51.3871 27.6428H47.2282V32.2052H41.7605V14.5402H51.2604C55.8626 14.5402 58.4592 16.6528 58.4592 21.2825C58.4592 23.6648 57.4459 25.3504 56.0526 26.3843L59.0081 32.1827H53.6248V32.2052ZM47.2282 23.2828H50.8804C52.2737 23.2828 52.9704 22.5636 52.9704 21.3275C52.9704 20.0914 52.2526 19.3722 50.8804 19.3722H47.2282V23.2828Z" fill="black"/>
<path d="M61.8159 23.3736C61.8159 17.71 65.5103 13.9568 71.2103 13.9568C76.9102 13.9568 80.6046 17.71 80.6046 23.3736C80.6046 29.0372 76.9102 32.7905 71.2103 32.7905C65.5103 32.7905 61.8159 29.0372 61.8159 23.3736ZM75.1791 23.3736C75.1791 20.5868 73.3847 18.9686 71.2103 18.9686C69.0358 18.9686 67.2414 20.5643 67.2414 23.3736C67.2414 26.1605 69.0358 27.7787 71.2103 27.7787C73.3847 27.7787 75.1791 26.1605 75.1791 23.3736Z" fill="black"/>
<path d="M84.3623 14.5402H90.6533L96.1633 24.0919H96.6488V14.5402H101.99V32.2052H95.8466L90.1889 22.6535H89.7034V32.2052H84.3623V14.5402Z" fill="black"/>
<path d="M122.721 19.3946H116.747V32.2051H111.279V19.3946H105.305V14.54H122.721V19.3946Z" fill="black"/>
</svg>
