<svg width="40" height="40" viewBox="0 0 40 40" fill="none" xmlns="http://www.w3.org/2000/svg">
<g clip-path="url(#clip0_1_205)">
<path d="M39.3019 30.1218C39.3169 30.1188 39.3316 30.1148 39.3464 30.1109C39.359 30.1077 39.3717 30.105 39.3841 30.1012C39.3986 30.0968 39.4127 30.0914 39.4268 30.0863C39.4393 30.0818 39.4519 30.0777 39.4643 30.0725C39.4776 30.067 39.4904 30.0605 39.5034 30.0544C39.516 30.0484 39.5288 30.0428 39.5412 30.0361C39.5536 30.0295 39.5652 30.022 39.5773 30.0148C39.5896 30.0074 39.6021 30.0005 39.6142 29.9924C39.627 29.9838 39.6389 29.9743 39.6513 29.9651C39.6617 29.9573 39.6724 29.9501 39.6825 29.9417C39.7013 29.9263 39.7191 29.9099 39.7364 29.893C39.7396 29.89 39.7429 29.8875 39.746 29.8844C39.7493 29.8811 39.752 29.8775 39.7552 29.8742C39.7718 29.8571 39.788 29.8395 39.8033 29.821C39.8122 29.8101 39.8199 29.7988 39.8283 29.7876C39.8368 29.776 39.8458 29.7648 39.8538 29.7527C39.8624 29.7399 39.8699 29.7266 39.8778 29.7134C39.8844 29.7023 39.8914 29.6914 39.8975 29.68C39.9047 29.6667 39.9107 29.6529 39.9171 29.6394C39.9228 29.6274 39.9288 29.6154 39.934 29.6031C39.9395 29.5898 39.9439 29.5762 39.9488 29.5627C39.9535 29.5495 39.9586 29.5364 39.9627 29.523C39.9668 29.5094 39.9698 29.4955 39.9733 29.4816C39.9767 29.468 39.9806 29.4546 39.9832 29.4408C39.9865 29.4245 39.9885 29.4081 39.9908 29.3916C39.9924 29.3801 39.9946 29.3686 39.9957 29.3569C39.9986 29.3281 40.0001 29.2993 40.0001 29.2704V10.7288C40.0001 10.2496 39.6119 9.86134 39.1327 9.86134H11.8074C11.7998 9.86134 11.7924 9.86227 11.7847 9.8625C11.7682 9.86296 11.7518 9.86366 11.7354 9.86504C11.7223 9.86609 11.7093 9.86759 11.6964 9.86932C11.6816 9.87117 11.6669 9.87337 11.6522 9.87603C11.6384 9.87846 11.6248 9.88135 11.6113 9.88448C11.5975 9.88771 11.5837 9.89118 11.5701 9.89512C11.5565 9.89893 11.5432 9.9031 11.5301 9.90749C11.5165 9.91212 11.503 9.91698 11.4897 9.9223C11.4771 9.92727 11.4647 9.93236 11.4525 9.93791C11.4388 9.94404 11.4253 9.95063 11.4119 9.95746C11.4004 9.96336 11.3892 9.96937 11.3781 9.97573C11.3647 9.98337 11.3515 9.99146 11.3384 9.99979C11.3277 10.0067 11.3171 10.0139 11.3067 10.0212C11.2945 10.0299 11.2823 10.0389 11.2704 10.0484C11.2595 10.057 11.2489 10.066 11.2384 10.0751C11.228 10.0842 11.2177 10.0934 11.2076 10.1031C11.1961 10.1141 11.1852 10.1255 11.1743 10.1371C11.1688 10.1429 11.1631 10.148 11.1579 10.1539C11.1547 10.1573 11.1523 10.1611 11.1493 10.1646C11.1384 10.1772 11.1282 10.1904 11.1181 10.2037C11.1107 10.2134 11.103 10.2231 11.0961 10.2331C11.0871 10.246 11.0787 10.2593 11.0704 10.2728C11.0636 10.2837 11.0565 10.2946 11.0503 10.3058C11.043 10.3188 11.0366 10.3321 11.0301 10.3454C11.024 10.3575 11.0178 10.3697 11.0124 10.3821C11.0067 10.3951 11.0017 10.4087 10.9967 10.422C10.9918 10.435 10.9867 10.448 10.9824 10.4612C10.9781 10.4745 10.9746 10.488 10.9709 10.5015C10.9672 10.5154 10.9633 10.5292 10.9602 10.5432C10.9573 10.5562 10.9553 10.5695 10.953 10.5827C10.9505 10.5978 10.9479 10.6128 10.9461 10.6278C10.9446 10.6403 10.9439 10.6531 10.943 10.6658C10.9418 10.682 10.9408 10.6982 10.9405 10.7145C10.9404 10.7192 10.9398 10.7238 10.9398 10.7286V16.0782C10.9398 16.5574 11.3281 16.9457 11.8073 16.9457C12.2865 16.9457 12.6748 16.5574 12.6748 16.0782V12.6552L20.3873 19.4835C20.347 19.5119 20.3083 19.5432 20.2722 19.5792L12.6747 27.1767V21.4759C12.6747 20.9967 12.2864 20.6085 11.8072 20.6085C11.328 20.6085 10.9397 20.9967 10.9397 21.4759V22.5359H6.4578C5.97861 22.5359 5.59033 22.9241 5.59033 23.4033C5.59033 23.8825 5.97861 24.2708 6.4578 24.2708H10.9397V29.271C10.9397 29.7502 11.328 30.1385 11.8072 30.1385H39.1324C39.161 30.1385 39.1896 30.137 39.218 30.1342C39.2313 30.1329 39.2442 30.1304 39.2572 30.1285C39.2723 30.1264 39.2871 30.1247 39.3019 30.1218ZM38.2651 27.1768L30.6675 19.5793C30.6626 19.5744 30.6574 19.5704 30.6524 19.5658L36.3642 14.7199C36.7294 14.4099 36.7743 13.8626 36.4643 13.4972C36.1546 13.132 35.6073 13.0869 35.2417 13.397L25.482 21.6773L14.0957 11.5964H38.2651V27.1768ZM21.4991 20.8062C21.561 20.7444 21.6112 20.6754 21.6504 20.6021L24.8949 23.4746C25.0589 23.6197 25.2643 23.6926 25.4699 23.6926C25.6696 23.6926 25.8691 23.624 26.0312 23.4866L29.3377 20.6813C29.3678 20.7253 29.4016 20.7673 29.4406 20.8062L37.0381 28.4038H13.9016L21.4991 20.8062Z" fill="white"/>
<path d="M0.867468 19.7408H15.5181C15.9973 19.7408 16.3855 19.3525 16.3855 18.8733C16.3855 18.3941 15.9973 18.0058 15.5181 18.0058H0.867468C0.388279 18.0058 0 18.3941 0 18.8733C0 19.3525 0.388279 19.7408 0.867468 19.7408Z" fill="white"/>
<path d="M2.38553 14.9604H8.96384C9.44303 14.9604 9.8313 14.5721 9.8313 14.0929C9.8313 13.6137 9.44303 13.2254 8.96384 13.2254H2.38553C1.90635 13.2254 1.51807 13.6137 1.51807 14.0929C1.51807 14.5721 1.90635 14.9604 2.38553 14.9604Z" fill="white"/>
<path d="M7.2289 26.1987H0.867468C0.388279 26.1987 0 26.587 0 27.0662C0 27.5454 0.388279 27.9336 0.867468 27.9336H7.2289C7.70809 27.9336 8.09637 27.5454 8.09637 27.0662C8.09637 26.587 7.70809 26.1987 7.2289 26.1987Z" fill="white"/>
</g>
<defs>
<clipPath id="clip0_1_205">
<rect width="40" height="40" fill="white"/>
</clipPath>
</defs>
</svg>
