<svg width="66" height="66" viewBox="0 0 66 66" fill="none" xmlns="http://www.w3.org/2000/svg">
<rect width="66" height="66" rx="33" fill="#786960"/>
<rect x="4" y="4" width="58" height="57" rx="28.5" fill="#8A8787"/>
<path d="M40.0125 39.7321C44.8011 32.218 44.1991 33.1555 44.3371 32.9596C46.0805 30.5006 47.002 27.6064 47.002 24.5898C47.002 16.59 40.5103 10 32.5 10C24.5158 10 17.998 16.577 17.998 24.5898C17.998 27.6045 18.9388 30.5744 20.7394 33.0665L24.9873 39.7322C20.4455 40.4301 12.7246 42.51 12.7246 47.0898C12.7246 48.7593 13.8143 51.1385 19.0054 52.9925C22.6302 54.287 27.4226 55 32.5 55C41.9944 55 52.2754 52.3218 52.2754 47.0898C52.2754 42.5092 44.5635 40.4315 40.0125 39.7321ZM22.9418 31.6163C22.9273 31.5936 22.9122 31.5714 22.8964 31.5496C21.3981 29.4884 20.6348 27.0456 20.6348 24.5898C20.6348 17.9965 25.9439 12.6367 32.5 12.6367C39.0425 12.6367 44.3652 17.9988 44.3652 24.5898C44.3652 27.0496 43.6163 29.4095 42.1991 31.4164C42.0721 31.5839 42.7347 30.5545 32.5 46.6143L22.9418 31.6163ZM32.5 52.3633C22.1294 52.3633 15.3613 49.315 15.3613 47.0898C15.3613 45.5943 18.839 43.1352 26.5452 42.1767L31.3882 49.776C31.6302 50.1558 32.0495 50.3857 32.4999 50.3857C32.9504 50.3857 33.3697 50.1557 33.6116 49.776L38.4545 42.1767C46.1609 43.1352 49.6387 45.5943 49.6387 47.0898C49.6387 49.2961 42.9315 52.3633 32.5 52.3633Z" fill="white"/>
<path d="M32.5 17.998C28.8653 17.998 25.9082 20.9551 25.9082 24.5898C25.9082 28.2246 28.8653 31.1816 32.5 31.1816C36.1347 31.1816 39.0918 28.2246 39.0918 24.5898C39.0918 20.9551 36.1347 17.998 32.5 17.998ZM32.5 28.5449C30.3192 28.5449 28.5449 26.7707 28.5449 24.5898C28.5449 22.409 30.3192 20.6348 32.5 20.6348C34.6808 20.6348 36.4551 22.409 36.4551 24.5898C36.4551 26.7707 34.6808 28.5449 32.5 28.5449Z" fill="white"/>
</svg>
