<svg width="20" height="16" viewBox="0 0 20 16" fill="none" xmlns="http://www.w3.org/2000/svg">
<path d="M0.714286 3.15625H19.2857C19.6802 3.15625 20 2.87645 20 2.53125V0.96875C20 0.623555 19.6802 0.34375 19.2857 0.34375H0.714286C0.319777 0.34375 0 0.623555 0 0.96875V2.53125C0 2.87645 0.319777 3.15625 0.714286 3.15625ZM0.714286 9.40625H19.2857C19.6802 9.40625 20 9.12645 20 8.78125V7.21875C20 6.87355 19.6802 6.59375 19.2857 6.59375H0.714286C0.319777 6.59375 0 6.87355 0 7.21875V8.78125C0 9.12645 0.319777 9.40625 0.714286 9.40625ZM0.714286 15.6562H19.2857C19.6802 15.6562 20 15.3764 20 15.0312V13.4688C20 13.1236 19.6802 12.8438 19.2857 12.8438H0.714286C0.319777 12.8438 0 13.1236 0 13.4688V15.0312C0 15.3764 0.319777 15.6562 0.714286 15.6562Z" fill="white"/>
</svg>
