<svg width="67" height="71" viewBox="0 0 67 71" fill="none" xmlns="http://www.w3.org/2000/svg">
<g clip-path="url(#clip0_1_83)">
<path d="M44.8039 37.6289C41.7891 32.6448 36.6544 29.6688 31.0683 29.6688C25.4827 29.6688 20.3475 32.6448 17.3332 37.6289L10.0684 49.6386C8.8631 51.6315 8.30694 53.9331 8.45978 56.2943C8.61262 58.6561 9.46065 60.8553 10.9119 62.6553C12.3641 64.4548 14.283 65.6845 16.4611 66.2121C18.6392 66.7391 20.872 66.5143 22.9177 65.5615L23.0511 65.4987C28.1991 63.1472 34.0832 63.1683 39.2184 65.5615C40.5428 66.1785 41.946 66.4905 43.3619 66.4905C44.1317 66.4905 44.9062 66.3979 45.6734 66.2126C47.8515 65.6855 49.7705 64.4559 51.2232 62.6564C52.6749 60.8569 53.5235 58.6571 53.6768 56.2954C53.8302 53.9331 53.274 51.6315 52.0687 49.6381L44.8039 37.6289ZM48.2385 59.9512C46.3906 62.2404 43.4013 62.9641 40.7994 61.7518C37.7069 60.3104 34.3873 59.5899 31.0668 59.5899C27.7493 59.5899 24.4303 60.3098 21.3397 61.7496L21.2518 61.7908C18.6699 62.9478 15.7245 62.2149 13.8971 59.9512C12.0513 57.6615 11.8412 54.4201 13.3747 51.8844L20.6399 39.8747C22.9289 36.0905 26.8271 33.8311 31.0683 33.8311C35.3095 33.8311 39.2082 36.0905 41.4977 39.8747L48.7619 51.8839C50.2959 54.4206 50.0853 57.6626 48.2385 59.9512Z" fill="#F0A83E"/>
<path d="M12.0253 37.6131C14.1865 36.7334 15.8284 34.8879 16.6488 32.4161C17.4289 30.0641 17.365 27.4088 16.4679 24.9387C15.5703 22.4702 13.9376 20.4551 11.8709 19.264C9.69898 18.0132 7.31336 17.8095 5.15571 18.6908C0.814859 20.4595 -1.17717 26.1439 0.715692 31.3653C2.22773 35.5211 5.75429 38.1445 9.3197 38.1445C10.2301 38.1445 11.143 37.9733 12.0253 37.6131ZM4.38078 29.8702C3.26541 26.7934 4.24532 23.5205 6.56654 22.5748C6.9857 22.4036 7.42888 22.3185 7.88127 22.3185C8.57952 22.3185 9.30078 22.5206 9.99495 22.9209C11.2432 23.6397 12.2405 24.8878 12.8028 26.4343C13.3646 27.9819 13.4147 29.6156 12.9434 31.0354C12.5114 32.3365 11.6849 33.2931 10.6165 33.7281L10.6145 33.7292C8.29634 34.6761 5.49973 32.9443 4.38078 29.8702Z" fill="#F0A83E"/>
<path d="M26.1213 28.204C31.5479 28.204 35.9629 22.8738 35.9629 16.3221C35.9629 9.76878 31.5479 4.4375 26.1213 4.4375C20.6953 4.4375 16.2808 9.76878 16.2808 16.3221C16.2808 22.8738 20.6953 28.204 26.1213 28.204ZM26.1213 8.59928C29.3821 8.59928 32.0355 12.0639 32.0355 16.3221C32.0355 20.5787 29.3821 24.0422 26.1213 24.0422C22.8606 24.0422 20.2081 20.5787 20.2081 16.3221C20.2081 12.0639 22.8606 8.59928 26.1213 8.59928Z" fill="#F0A83E"/>
<path d="M43.1176 31.1233H43.1181C43.9528 31.4169 44.8045 31.5572 45.6525 31.5572C49.61 31.5572 53.4667 28.5048 54.9384 23.8138C55.7859 21.1135 55.7302 18.2582 54.7815 15.7746C53.7888 13.175 51.9491 11.2878 49.6008 10.4601C47.2524 9.63349 44.7114 9.978 42.4474 11.4308C40.2847 12.8191 38.6275 15.0704 37.7815 17.7707C35.995 23.4671 38.3888 29.4571 43.1176 31.1233ZM41.5084 19.0832C42.061 17.32 43.1171 15.8672 44.4824 14.9908C45.7455 14.1799 47.1236 13.9735 48.3622 14.4095C49.6002 14.8461 50.5868 15.8851 51.1409 17.3357C51.7395 18.9034 51.765 20.7375 51.2114 22.5007C50.1078 26.0195 47.0326 28.1158 44.3567 27.1739C41.6827 26.2313 40.4048 22.602 41.5084 19.0832Z" fill="#F0A83E"/>
<path d="M63.8431 29.7365L63.8415 29.7349C60.0992 26.8054 54.5024 28.0751 51.3644 32.5668C48.2294 37.0606 48.7196 43.102 52.4562 46.0337C53.819 47.1035 55.4292 47.6148 57.0772 47.6148C59.9495 47.6148 62.9378 46.0613 64.9349 43.2044C68.0699 38.7106 67.5802 32.6692 63.8431 29.7365ZM61.7784 40.7284C59.9254 43.3788 56.7925 44.258 54.7933 42.6887C52.7956 41.1216 52.674 37.6906 54.5219 35.0418C55.7502 33.2834 57.5444 32.3052 59.1981 32.3052C60.0343 32.3052 60.8348 32.5554 61.5075 33.0825C63.5036 34.6512 63.6248 38.0812 61.7784 40.7284Z" fill="#F0A83E"/>
</g>
<defs>
<clipPath id="clip0_1_83">
<rect width="67" height="71" fill="white"/>
</clipPath>
</defs>
</svg>
